<mxfile host="app.diagrams.net" modified="2023-11-18T08:05:06.565Z" agent="Mozilla/5.0 (Windows NT 10.0; Win64; x64) AppleWebKit/537.36 (KHTML, like Gecko) Chrome/119.0.0.0 Safari/537.36" etag="ZZiOWLzN1710UwUiGDIP" version="22.1.3" type="github">
  <diagram name="Page-1" id="55a83fd1-7818-8e21-69c5-c3457e3827bb">
    <mxGraphModel dx="988" dy="529" grid="1" gridSize="10" guides="1" tooltips="1" connect="1" arrows="1" fold="1" page="1" pageScale="1" pageWidth="1100" pageHeight="850" background="none" math="1" shadow="0">
      <root>
        <mxCell id="0" />
        <mxCell id="1" parent="0" />
        <mxCell id="eB2GRgj2G_UXWOvekkWb-1" value="&lt;font style=&quot;font-size: 36px;&quot; face=&quot;Times New Roman&quot;&gt;A&lt;/font&gt;" style="whiteSpace=wrap;html=1;aspect=fixed;" parent="1" vertex="1">
          <mxGeometry x="200" y="200" width="80" height="80" as="geometry" />
        </mxCell>
        <mxCell id="eB2GRgj2G_UXWOvekkWb-2" value="&lt;font style=&quot;font-size: 36px;&quot; face=&quot;Times New Roman&quot;&gt;B&lt;/font&gt;" style="whiteSpace=wrap;html=1;aspect=fixed;" parent="1" vertex="1">
          <mxGeometry x="440" y="200" width="80" height="80" as="geometry" />
        </mxCell>
        <mxCell id="eB2GRgj2G_UXWOvekkWb-3" value="" style="curved=1;endArrow=classic;html=1;rounded=0;exitX=1;exitY=0.25;exitDx=0;exitDy=0;entryX=0;entryY=0.25;entryDx=0;entryDy=0;fillColor=#1ba1e2;strokeColor=#006EAF;strokeWidth=2;" parent="1" source="eB2GRgj2G_UXWOvekkWb-1" target="eB2GRgj2G_UXWOvekkWb-2" edge="1">
          <mxGeometry width="50" height="50" relative="1" as="geometry">
            <mxPoint x="370" y="330" as="sourcePoint" />
            <mxPoint x="420" y="280" as="targetPoint" />
            <Array as="points">
              <mxPoint x="360" y="200" />
            </Array>
          </mxGeometry>
        </mxCell>
        <mxCell id="eB2GRgj2G_UXWOvekkWb-4" value="" style="curved=1;endArrow=classic;html=1;rounded=0;exitX=0;exitY=0.75;exitDx=0;exitDy=0;entryX=1;entryY=0.75;entryDx=0;entryDy=0;fillColor=#fa6800;strokeColor=#C73500;strokeWidth=2;" parent="1" source="eB2GRgj2G_UXWOvekkWb-2" target="eB2GRgj2G_UXWOvekkWb-1" edge="1">
          <mxGeometry width="50" height="50" relative="1" as="geometry">
            <mxPoint x="500" y="300" as="sourcePoint" />
            <mxPoint x="230" y="300" as="targetPoint" />
            <Array as="points">
              <mxPoint x="360" y="280" />
            </Array>
          </mxGeometry>
        </mxCell>
        <mxCell id="5gzmhHeyu6LbhZaNA1Yw-24" value="" style="group" vertex="1" connectable="0" parent="1">
          <mxGeometry x="340" y="190" width="40" height="40" as="geometry" />
        </mxCell>
        <mxCell id="5gzmhHeyu6LbhZaNA1Yw-23" value="" style="whiteSpace=wrap;html=1;aspect=fixed;" vertex="1" parent="5gzmhHeyu6LbhZaNA1Yw-24">
          <mxGeometry width="40" height="40" as="geometry" />
        </mxCell>
        <mxCell id="eB2GRgj2G_UXWOvekkWb-5" value="" style="ellipse;whiteSpace=wrap;html=1;aspect=fixed;fillColor=#0000ff;strokeColor=#0068d6;strokeWidth=0;" parent="5gzmhHeyu6LbhZaNA1Yw-24" vertex="1">
          <mxGeometry x="2.5" y="12.5" width="5" height="5" as="geometry" />
        </mxCell>
        <mxCell id="eB2GRgj2G_UXWOvekkWb-6" value="" style="ellipse;whiteSpace=wrap;html=1;aspect=fixed;fillColor=#0000ff;strokeColor=#0068d6;strokeWidth=0;" parent="5gzmhHeyu6LbhZaNA1Yw-24" vertex="1">
          <mxGeometry x="2.5" y="22.5" width="5" height="5" as="geometry" />
        </mxCell>
        <mxCell id="eB2GRgj2G_UXWOvekkWb-7" value="" style="ellipse;whiteSpace=wrap;html=1;aspect=fixed;fillColor=#0000ff;strokeColor=#0068d6;strokeWidth=0;" parent="5gzmhHeyu6LbhZaNA1Yw-24" vertex="1">
          <mxGeometry x="2.5" y="32.5" width="5" height="5" as="geometry" />
        </mxCell>
        <mxCell id="eB2GRgj2G_UXWOvekkWb-8" value="" style="ellipse;whiteSpace=wrap;html=1;aspect=fixed;fillColor=#0000ff;strokeColor=#0068d6;strokeWidth=0;" parent="5gzmhHeyu6LbhZaNA1Yw-24" vertex="1">
          <mxGeometry x="2.5" y="2.5" width="5" height="5" as="geometry" />
        </mxCell>
        <mxCell id="eB2GRgj2G_UXWOvekkWb-9" value="" style="ellipse;whiteSpace=wrap;html=1;aspect=fixed;strokeWidth=0;fillColor=#00ff00;" parent="5gzmhHeyu6LbhZaNA1Yw-24" vertex="1">
          <mxGeometry x="32.5" y="12.5" width="5" height="5" as="geometry" />
        </mxCell>
        <mxCell id="eB2GRgj2G_UXWOvekkWb-10" value="" style="ellipse;whiteSpace=wrap;html=1;aspect=fixed;strokeWidth=0;fillColor=#00ff00;" parent="5gzmhHeyu6LbhZaNA1Yw-24" vertex="1">
          <mxGeometry x="32.5" y="22.5" width="5" height="5" as="geometry" />
        </mxCell>
        <mxCell id="eB2GRgj2G_UXWOvekkWb-11" value="" style="ellipse;whiteSpace=wrap;html=1;aspect=fixed;strokeWidth=0;fillColor=#00ff00;" parent="5gzmhHeyu6LbhZaNA1Yw-24" vertex="1">
          <mxGeometry x="32.5" y="32.5" width="5" height="5" as="geometry" />
        </mxCell>
        <mxCell id="eB2GRgj2G_UXWOvekkWb-12" value="" style="ellipse;whiteSpace=wrap;html=1;aspect=fixed;strokeWidth=0;fillColor=#00ff00;" parent="5gzmhHeyu6LbhZaNA1Yw-24" vertex="1">
          <mxGeometry x="32.5" y="2.5" width="5" height="5" as="geometry" />
        </mxCell>
        <mxCell id="eB2GRgj2G_UXWOvekkWb-13" value="" style="ellipse;whiteSpace=wrap;html=1;aspect=fixed;strokeWidth=0;fillColor=#ff0000;" parent="5gzmhHeyu6LbhZaNA1Yw-24" vertex="1">
          <mxGeometry x="17.5" y="7.5" width="5" height="5" as="geometry" />
        </mxCell>
        <mxCell id="eB2GRgj2G_UXWOvekkWb-14" value="" style="ellipse;whiteSpace=wrap;html=1;aspect=fixed;strokeWidth=0;fillColor=#ff0000;" parent="5gzmhHeyu6LbhZaNA1Yw-24" vertex="1">
          <mxGeometry x="17.5" y="17.5" width="5" height="5" as="geometry" />
        </mxCell>
        <mxCell id="eB2GRgj2G_UXWOvekkWb-15" value="" style="ellipse;whiteSpace=wrap;html=1;aspect=fixed;strokeWidth=0;fillColor=#ff0000;" parent="5gzmhHeyu6LbhZaNA1Yw-24" vertex="1">
          <mxGeometry x="17.5" y="27.5" width="5" height="5" as="geometry" />
        </mxCell>
        <mxCell id="eB2GRgj2G_UXWOvekkWb-16" value="" style="endArrow=classic;html=1;rounded=0;exitX=1;exitY=0.5;exitDx=0;exitDy=0;entryX=0;entryY=0.5;entryDx=0;entryDy=0;strokeWidth=0.5;endSize=1;" parent="5gzmhHeyu6LbhZaNA1Yw-24" source="eB2GRgj2G_UXWOvekkWb-8" target="eB2GRgj2G_UXWOvekkWb-13" edge="1">
          <mxGeometry width="50" height="50" relative="1" as="geometry">
            <mxPoint x="27.5" y="77.5" as="sourcePoint" />
            <mxPoint x="22.5" y="-7.5" as="targetPoint" />
            <Array as="points" />
          </mxGeometry>
        </mxCell>
        <mxCell id="eB2GRgj2G_UXWOvekkWb-17" value="" style="endArrow=classic;html=1;rounded=0;exitX=1;exitY=0.5;exitDx=0;exitDy=0;entryX=0;entryY=0.5;entryDx=0;entryDy=0;strokeWidth=0.5;endSize=1;" parent="5gzmhHeyu6LbhZaNA1Yw-24" source="eB2GRgj2G_UXWOvekkWb-5" target="eB2GRgj2G_UXWOvekkWb-13" edge="1">
          <mxGeometry width="50" height="50" relative="1" as="geometry">
            <mxPoint x="12.5" y="-2.5" as="sourcePoint" />
            <mxPoint x="22.5" y="2.5" as="targetPoint" />
            <Array as="points">
              <mxPoint x="12.5" y="12.5" />
            </Array>
          </mxGeometry>
        </mxCell>
        <mxCell id="5gzmhHeyu6LbhZaNA1Yw-1" value="" style="endArrow=classic;html=1;rounded=0;exitX=1;exitY=0.5;exitDx=0;exitDy=0;entryX=0;entryY=0.5;entryDx=0;entryDy=0;strokeWidth=0.5;endSize=1;" edge="1" parent="5gzmhHeyu6LbhZaNA1Yw-24" source="eB2GRgj2G_UXWOvekkWb-6" target="eB2GRgj2G_UXWOvekkWb-13">
          <mxGeometry width="50" height="50" relative="1" as="geometry">
            <mxPoint x="12.5" y="10" as="sourcePoint" />
            <mxPoint x="22.5" y="15" as="targetPoint" />
            <Array as="points" />
          </mxGeometry>
        </mxCell>
        <mxCell id="5gzmhHeyu6LbhZaNA1Yw-2" value="" style="endArrow=classic;html=1;rounded=0;entryX=0;entryY=0.5;entryDx=0;entryDy=0;strokeWidth=0.5;endSize=1;exitX=1;exitY=0.5;exitDx=0;exitDy=0;" edge="1" parent="5gzmhHeyu6LbhZaNA1Yw-24" source="eB2GRgj2G_UXWOvekkWb-7" target="eB2GRgj2G_UXWOvekkWb-13">
          <mxGeometry width="50" height="50" relative="1" as="geometry">
            <mxPoint x="12.5" y="27.5" as="sourcePoint" />
            <mxPoint x="27.5" y="20" as="targetPoint" />
            <Array as="points" />
          </mxGeometry>
        </mxCell>
        <mxCell id="5gzmhHeyu6LbhZaNA1Yw-3" value="" style="endArrow=classic;html=1;rounded=0;exitX=1;exitY=0.5;exitDx=0;exitDy=0;entryX=0;entryY=0.5;entryDx=0;entryDy=0;strokeWidth=0.5;endSize=1;" edge="1" parent="5gzmhHeyu6LbhZaNA1Yw-24" source="eB2GRgj2G_UXWOvekkWb-8" target="eB2GRgj2G_UXWOvekkWb-14">
          <mxGeometry width="50" height="50" relative="1" as="geometry">
            <mxPoint x="12.5" y="2.5" as="sourcePoint" />
            <mxPoint x="22.5" y="7.5" as="targetPoint" />
            <Array as="points" />
          </mxGeometry>
        </mxCell>
        <mxCell id="5gzmhHeyu6LbhZaNA1Yw-4" value="" style="endArrow=classic;html=1;rounded=0;exitX=1;exitY=0.5;exitDx=0;exitDy=0;entryX=0;entryY=0.5;entryDx=0;entryDy=0;strokeWidth=0.5;endSize=1;" edge="1" parent="5gzmhHeyu6LbhZaNA1Yw-24" source="eB2GRgj2G_UXWOvekkWb-5" target="eB2GRgj2G_UXWOvekkWb-14">
          <mxGeometry width="50" height="50" relative="1" as="geometry">
            <mxPoint x="17.5" y="12.5" as="sourcePoint" />
            <mxPoint x="27.5" y="17.5" as="targetPoint" />
            <Array as="points" />
          </mxGeometry>
        </mxCell>
        <mxCell id="5gzmhHeyu6LbhZaNA1Yw-5" value="" style="endArrow=classic;html=1;rounded=0;exitX=1;exitY=0.5;exitDx=0;exitDy=0;entryX=0;entryY=0.5;entryDx=0;entryDy=0;strokeWidth=0.5;endSize=1;" edge="1" parent="5gzmhHeyu6LbhZaNA1Yw-24" source="eB2GRgj2G_UXWOvekkWb-6" target="eB2GRgj2G_UXWOvekkWb-14">
          <mxGeometry width="50" height="50" relative="1" as="geometry">
            <mxPoint x="32.5" y="30" as="sourcePoint" />
            <mxPoint x="42.5" y="35" as="targetPoint" />
            <Array as="points" />
          </mxGeometry>
        </mxCell>
        <mxCell id="5gzmhHeyu6LbhZaNA1Yw-6" value="" style="endArrow=classic;html=1;rounded=0;exitX=1;exitY=0.5;exitDx=0;exitDy=0;entryX=0;entryY=0.5;entryDx=0;entryDy=0;strokeWidth=0.5;endSize=1;" edge="1" parent="5gzmhHeyu6LbhZaNA1Yw-24" source="eB2GRgj2G_UXWOvekkWb-7" target="eB2GRgj2G_UXWOvekkWb-14">
          <mxGeometry width="50" height="50" relative="1" as="geometry">
            <mxPoint x="67.5" y="17.5" as="sourcePoint" />
            <mxPoint x="77.5" y="12.5" as="targetPoint" />
            <Array as="points" />
          </mxGeometry>
        </mxCell>
        <mxCell id="5gzmhHeyu6LbhZaNA1Yw-7" value="" style="endArrow=classic;html=1;rounded=0;exitX=1;exitY=0.5;exitDx=0;exitDy=0;entryX=0;entryY=0.5;entryDx=0;entryDy=0;strokeWidth=0.5;endSize=1;" edge="1" parent="5gzmhHeyu6LbhZaNA1Yw-24" source="eB2GRgj2G_UXWOvekkWb-7" target="eB2GRgj2G_UXWOvekkWb-15">
          <mxGeometry width="50" height="50" relative="1" as="geometry">
            <mxPoint x="77.5" y="17.5" as="sourcePoint" />
            <mxPoint x="87.5" y="12.5" as="targetPoint" />
            <Array as="points" />
          </mxGeometry>
        </mxCell>
        <mxCell id="5gzmhHeyu6LbhZaNA1Yw-8" value="" style="endArrow=classic;html=1;rounded=0;exitX=1;exitY=0.5;exitDx=0;exitDy=0;entryX=0;entryY=0.5;entryDx=0;entryDy=0;strokeWidth=0.5;endSize=1;" edge="1" parent="5gzmhHeyu6LbhZaNA1Yw-24" source="eB2GRgj2G_UXWOvekkWb-6" target="eB2GRgj2G_UXWOvekkWb-15">
          <mxGeometry width="50" height="50" relative="1" as="geometry">
            <mxPoint x="82.5" y="22.5" as="sourcePoint" />
            <mxPoint x="92.5" y="17.5" as="targetPoint" />
            <Array as="points" />
          </mxGeometry>
        </mxCell>
        <mxCell id="5gzmhHeyu6LbhZaNA1Yw-9" value="" style="endArrow=classic;html=1;rounded=0;exitX=1;exitY=0.5;exitDx=0;exitDy=0;entryX=0;entryY=0.5;entryDx=0;entryDy=0;strokeWidth=0.5;endSize=1;" edge="1" parent="5gzmhHeyu6LbhZaNA1Yw-24" source="eB2GRgj2G_UXWOvekkWb-5" target="eB2GRgj2G_UXWOvekkWb-15">
          <mxGeometry width="50" height="50" relative="1" as="geometry">
            <mxPoint x="87.5" y="27.5" as="sourcePoint" />
            <mxPoint x="97.5" y="22.5" as="targetPoint" />
            <Array as="points" />
          </mxGeometry>
        </mxCell>
        <mxCell id="5gzmhHeyu6LbhZaNA1Yw-10" value="" style="endArrow=classic;html=1;rounded=0;entryX=0;entryY=0.5;entryDx=0;entryDy=0;strokeWidth=0.5;endSize=1;exitX=1;exitY=0.5;exitDx=0;exitDy=0;" edge="1" parent="5gzmhHeyu6LbhZaNA1Yw-24" source="eB2GRgj2G_UXWOvekkWb-8" target="eB2GRgj2G_UXWOvekkWb-15">
          <mxGeometry width="50" height="50" relative="1" as="geometry">
            <mxPoint x="92.5" y="32.5" as="sourcePoint" />
            <mxPoint x="102.5" y="27.5" as="targetPoint" />
            <Array as="points" />
          </mxGeometry>
        </mxCell>
        <mxCell id="5gzmhHeyu6LbhZaNA1Yw-11" value="" style="endArrow=classic;html=1;rounded=0;exitX=1;exitY=0.5;exitDx=0;exitDy=0;entryX=0;entryY=0.5;entryDx=0;entryDy=0;strokeWidth=0.5;endSize=1;" edge="1" parent="5gzmhHeyu6LbhZaNA1Yw-24" source="eB2GRgj2G_UXWOvekkWb-13" target="eB2GRgj2G_UXWOvekkWb-12">
          <mxGeometry width="50" height="50" relative="1" as="geometry">
            <mxPoint x="22.5" y="2.5" as="sourcePoint" />
            <mxPoint x="32.5" y="-2.5" as="targetPoint" />
            <Array as="points" />
          </mxGeometry>
        </mxCell>
        <mxCell id="5gzmhHeyu6LbhZaNA1Yw-12" value="" style="endArrow=classic;html=1;rounded=0;entryX=0;entryY=0.5;entryDx=0;entryDy=0;strokeWidth=0.5;endSize=1;exitX=1;exitY=0.5;exitDx=0;exitDy=0;" edge="1" parent="5gzmhHeyu6LbhZaNA1Yw-24" source="eB2GRgj2G_UXWOvekkWb-13" target="eB2GRgj2G_UXWOvekkWb-9">
          <mxGeometry width="50" height="50" relative="1" as="geometry">
            <mxPoint x="52.5" y="12.5" as="sourcePoint" />
            <mxPoint x="62.5" y="7.5" as="targetPoint" />
            <Array as="points" />
          </mxGeometry>
        </mxCell>
        <mxCell id="5gzmhHeyu6LbhZaNA1Yw-13" value="" style="endArrow=classic;html=1;rounded=0;exitX=1;exitY=0.5;exitDx=0;exitDy=0;entryX=0;entryY=0.5;entryDx=0;entryDy=0;strokeWidth=0.5;endSize=1;" edge="1" parent="5gzmhHeyu6LbhZaNA1Yw-24" source="eB2GRgj2G_UXWOvekkWb-13" target="eB2GRgj2G_UXWOvekkWb-11">
          <mxGeometry width="50" height="50" relative="1" as="geometry">
            <mxPoint x="62.5" y="17.5" as="sourcePoint" />
            <mxPoint x="72.5" y="12.5" as="targetPoint" />
            <Array as="points" />
          </mxGeometry>
        </mxCell>
        <mxCell id="5gzmhHeyu6LbhZaNA1Yw-14" value="" style="endArrow=classic;html=1;rounded=0;entryX=0;entryY=0.5;entryDx=0;entryDy=0;strokeWidth=0.5;endSize=1;exitX=1;exitY=0.5;exitDx=0;exitDy=0;" edge="1" parent="5gzmhHeyu6LbhZaNA1Yw-24" source="eB2GRgj2G_UXWOvekkWb-13" target="eB2GRgj2G_UXWOvekkWb-10">
          <mxGeometry width="50" height="50" relative="1" as="geometry">
            <mxPoint x="52.5" y="17.5" as="sourcePoint" />
            <mxPoint x="62.5" y="12.5" as="targetPoint" />
            <Array as="points" />
          </mxGeometry>
        </mxCell>
        <mxCell id="5gzmhHeyu6LbhZaNA1Yw-15" value="" style="endArrow=classic;html=1;rounded=0;exitX=1;exitY=0.5;exitDx=0;exitDy=0;entryX=0;entryY=0.5;entryDx=0;entryDy=0;strokeWidth=0.5;endSize=1;" edge="1" parent="5gzmhHeyu6LbhZaNA1Yw-24" source="eB2GRgj2G_UXWOvekkWb-14" target="eB2GRgj2G_UXWOvekkWb-12">
          <mxGeometry width="50" height="50" relative="1" as="geometry">
            <mxPoint x="67.5" y="7.5" as="sourcePoint" />
            <mxPoint x="77.5" y="2.5" as="targetPoint" />
            <Array as="points" />
          </mxGeometry>
        </mxCell>
        <mxCell id="5gzmhHeyu6LbhZaNA1Yw-16" value="" style="endArrow=classic;html=1;rounded=0;exitX=1;exitY=0.5;exitDx=0;exitDy=0;entryX=0;entryY=0.5;entryDx=0;entryDy=0;strokeWidth=0.5;endSize=1;" edge="1" parent="5gzmhHeyu6LbhZaNA1Yw-24" source="eB2GRgj2G_UXWOvekkWb-15" target="eB2GRgj2G_UXWOvekkWb-9">
          <mxGeometry width="50" height="50" relative="1" as="geometry">
            <mxPoint x="67.5" y="22.5" as="sourcePoint" />
            <mxPoint x="77.5" y="17.5" as="targetPoint" />
            <Array as="points" />
          </mxGeometry>
        </mxCell>
        <mxCell id="5gzmhHeyu6LbhZaNA1Yw-17" value="" style="endArrow=classic;html=1;rounded=0;exitX=1;exitY=0.5;exitDx=0;exitDy=0;entryX=0;entryY=0.5;entryDx=0;entryDy=0;strokeWidth=0.5;endSize=1;" edge="1" parent="5gzmhHeyu6LbhZaNA1Yw-24" source="eB2GRgj2G_UXWOvekkWb-15" target="eB2GRgj2G_UXWOvekkWb-12">
          <mxGeometry width="50" height="50" relative="1" as="geometry">
            <mxPoint x="57.5" y="27.5" as="sourcePoint" />
            <mxPoint x="67.5" y="22.5" as="targetPoint" />
            <Array as="points" />
          </mxGeometry>
        </mxCell>
        <mxCell id="5gzmhHeyu6LbhZaNA1Yw-18" value="" style="endArrow=classic;html=1;rounded=0;exitX=1;exitY=0.5;exitDx=0;exitDy=0;entryX=0;entryY=0.5;entryDx=0;entryDy=0;strokeWidth=0.5;endSize=1;" edge="1" parent="5gzmhHeyu6LbhZaNA1Yw-24" source="eB2GRgj2G_UXWOvekkWb-15" target="eB2GRgj2G_UXWOvekkWb-10">
          <mxGeometry width="50" height="50" relative="1" as="geometry">
            <mxPoint x="67.5" y="27.5" as="sourcePoint" />
            <mxPoint x="77.5" y="22.5" as="targetPoint" />
            <Array as="points" />
          </mxGeometry>
        </mxCell>
        <mxCell id="5gzmhHeyu6LbhZaNA1Yw-19" value="" style="endArrow=classic;html=1;rounded=0;exitX=1;exitY=0.5;exitDx=0;exitDy=0;entryX=0;entryY=0.5;entryDx=0;entryDy=0;strokeWidth=0.5;endSize=1;" edge="1" parent="5gzmhHeyu6LbhZaNA1Yw-24" source="eB2GRgj2G_UXWOvekkWb-15" target="eB2GRgj2G_UXWOvekkWb-11">
          <mxGeometry width="50" height="50" relative="1" as="geometry">
            <mxPoint x="82.5" y="27.5" as="sourcePoint" />
            <mxPoint x="92.5" y="22.5" as="targetPoint" />
            <Array as="points" />
          </mxGeometry>
        </mxCell>
        <mxCell id="5gzmhHeyu6LbhZaNA1Yw-20" value="" style="endArrow=classic;html=1;rounded=0;exitX=1;exitY=0.5;exitDx=0;exitDy=0;entryX=0;entryY=0.5;entryDx=0;entryDy=0;strokeWidth=0.5;endSize=1;" edge="1" parent="5gzmhHeyu6LbhZaNA1Yw-24" source="eB2GRgj2G_UXWOvekkWb-14" target="eB2GRgj2G_UXWOvekkWb-9">
          <mxGeometry width="50" height="50" relative="1" as="geometry">
            <mxPoint x="77.5" y="7.5" as="sourcePoint" />
            <mxPoint x="87.5" y="2.5" as="targetPoint" />
            <Array as="points" />
          </mxGeometry>
        </mxCell>
        <mxCell id="5gzmhHeyu6LbhZaNA1Yw-21" value="" style="endArrow=classic;html=1;rounded=0;exitX=1;exitY=0.5;exitDx=0;exitDy=0;entryX=0;entryY=0.5;entryDx=0;entryDy=0;strokeWidth=0.5;endSize=1;" edge="1" parent="5gzmhHeyu6LbhZaNA1Yw-24" source="eB2GRgj2G_UXWOvekkWb-14" target="eB2GRgj2G_UXWOvekkWb-10">
          <mxGeometry width="50" height="50" relative="1" as="geometry">
            <mxPoint x="82.5" y="12.5" as="sourcePoint" />
            <mxPoint x="92.5" y="7.5" as="targetPoint" />
            <Array as="points" />
          </mxGeometry>
        </mxCell>
        <mxCell id="5gzmhHeyu6LbhZaNA1Yw-22" value="" style="endArrow=classic;html=1;rounded=0;exitX=1;exitY=0.5;exitDx=0;exitDy=0;entryX=0;entryY=0.5;entryDx=0;entryDy=0;strokeWidth=0.5;endSize=1;" edge="1" parent="5gzmhHeyu6LbhZaNA1Yw-24" source="eB2GRgj2G_UXWOvekkWb-14" target="eB2GRgj2G_UXWOvekkWb-11">
          <mxGeometry width="50" height="50" relative="1" as="geometry">
            <mxPoint x="87.5" y="17.5" as="sourcePoint" />
            <mxPoint x="97.5" y="12.5" as="targetPoint" />
            <Array as="points" />
          </mxGeometry>
        </mxCell>
        <mxCell id="5gzmhHeyu6LbhZaNA1Yw-26" value="" style="group" vertex="1" connectable="0" parent="1">
          <mxGeometry x="340" y="250" width="40" height="40" as="geometry" />
        </mxCell>
        <mxCell id="5gzmhHeyu6LbhZaNA1Yw-27" value="" style="whiteSpace=wrap;html=1;aspect=fixed;" vertex="1" parent="5gzmhHeyu6LbhZaNA1Yw-26">
          <mxGeometry width="40" height="40" as="geometry" />
        </mxCell>
        <mxCell id="5gzmhHeyu6LbhZaNA1Yw-28" value="" style="ellipse;whiteSpace=wrap;html=1;aspect=fixed;fillColor=#0000ff;strokeColor=#0068d6;strokeWidth=0;" vertex="1" parent="5gzmhHeyu6LbhZaNA1Yw-26">
          <mxGeometry x="2.5" y="12.5" width="5" height="5" as="geometry" />
        </mxCell>
        <mxCell id="5gzmhHeyu6LbhZaNA1Yw-29" value="" style="ellipse;whiteSpace=wrap;html=1;aspect=fixed;fillColor=#0000ff;strokeColor=#0068d6;strokeWidth=0;" vertex="1" parent="5gzmhHeyu6LbhZaNA1Yw-26">
          <mxGeometry x="2.5" y="22.5" width="5" height="5" as="geometry" />
        </mxCell>
        <mxCell id="5gzmhHeyu6LbhZaNA1Yw-30" value="" style="ellipse;whiteSpace=wrap;html=1;aspect=fixed;fillColor=#0000ff;strokeColor=#0068d6;strokeWidth=0;" vertex="1" parent="5gzmhHeyu6LbhZaNA1Yw-26">
          <mxGeometry x="2.5" y="32.5" width="5" height="5" as="geometry" />
        </mxCell>
        <mxCell id="5gzmhHeyu6LbhZaNA1Yw-31" value="" style="ellipse;whiteSpace=wrap;html=1;aspect=fixed;fillColor=#0000ff;strokeColor=#0068d6;strokeWidth=0;" vertex="1" parent="5gzmhHeyu6LbhZaNA1Yw-26">
          <mxGeometry x="2.5" y="2.5" width="5" height="5" as="geometry" />
        </mxCell>
        <mxCell id="5gzmhHeyu6LbhZaNA1Yw-32" value="" style="ellipse;whiteSpace=wrap;html=1;aspect=fixed;strokeWidth=0;fillColor=#00ff00;" vertex="1" parent="5gzmhHeyu6LbhZaNA1Yw-26">
          <mxGeometry x="32.5" y="12.5" width="5" height="5" as="geometry" />
        </mxCell>
        <mxCell id="5gzmhHeyu6LbhZaNA1Yw-33" value="" style="ellipse;whiteSpace=wrap;html=1;aspect=fixed;strokeWidth=0;fillColor=#00ff00;" vertex="1" parent="5gzmhHeyu6LbhZaNA1Yw-26">
          <mxGeometry x="32.5" y="22.5" width="5" height="5" as="geometry" />
        </mxCell>
        <mxCell id="5gzmhHeyu6LbhZaNA1Yw-34" value="" style="ellipse;whiteSpace=wrap;html=1;aspect=fixed;strokeWidth=0;fillColor=#00ff00;" vertex="1" parent="5gzmhHeyu6LbhZaNA1Yw-26">
          <mxGeometry x="32.5" y="32.5" width="5" height="5" as="geometry" />
        </mxCell>
        <mxCell id="5gzmhHeyu6LbhZaNA1Yw-35" value="" style="ellipse;whiteSpace=wrap;html=1;aspect=fixed;strokeWidth=0;fillColor=#00ff00;" vertex="1" parent="5gzmhHeyu6LbhZaNA1Yw-26">
          <mxGeometry x="32.5" y="2.5" width="5" height="5" as="geometry" />
        </mxCell>
        <mxCell id="5gzmhHeyu6LbhZaNA1Yw-36" value="" style="ellipse;whiteSpace=wrap;html=1;aspect=fixed;strokeWidth=0;fillColor=#ff0000;" vertex="1" parent="5gzmhHeyu6LbhZaNA1Yw-26">
          <mxGeometry x="17.5" y="7.5" width="5" height="5" as="geometry" />
        </mxCell>
        <mxCell id="5gzmhHeyu6LbhZaNA1Yw-37" value="" style="ellipse;whiteSpace=wrap;html=1;aspect=fixed;strokeWidth=0;fillColor=#ff0000;" vertex="1" parent="5gzmhHeyu6LbhZaNA1Yw-26">
          <mxGeometry x="17.5" y="17.5" width="5" height="5" as="geometry" />
        </mxCell>
        <mxCell id="5gzmhHeyu6LbhZaNA1Yw-38" value="" style="ellipse;whiteSpace=wrap;html=1;aspect=fixed;strokeWidth=0;fillColor=#ff0000;" vertex="1" parent="5gzmhHeyu6LbhZaNA1Yw-26">
          <mxGeometry x="17.5" y="27.5" width="5" height="5" as="geometry" />
        </mxCell>
        <mxCell id="5gzmhHeyu6LbhZaNA1Yw-39" value="" style="endArrow=classic;html=1;rounded=0;exitX=1;exitY=0.5;exitDx=0;exitDy=0;entryX=0;entryY=0.5;entryDx=0;entryDy=0;strokeWidth=0.5;endSize=1;" edge="1" parent="5gzmhHeyu6LbhZaNA1Yw-26" source="5gzmhHeyu6LbhZaNA1Yw-31" target="5gzmhHeyu6LbhZaNA1Yw-36">
          <mxGeometry width="50" height="50" relative="1" as="geometry">
            <mxPoint x="27.5" y="77.5" as="sourcePoint" />
            <mxPoint x="22.5" y="-7.5" as="targetPoint" />
            <Array as="points" />
          </mxGeometry>
        </mxCell>
        <mxCell id="5gzmhHeyu6LbhZaNA1Yw-40" value="" style="endArrow=classic;html=1;rounded=0;exitX=1;exitY=0.5;exitDx=0;exitDy=0;entryX=0;entryY=0.5;entryDx=0;entryDy=0;strokeWidth=0.5;endSize=1;" edge="1" parent="5gzmhHeyu6LbhZaNA1Yw-26" source="5gzmhHeyu6LbhZaNA1Yw-28" target="5gzmhHeyu6LbhZaNA1Yw-36">
          <mxGeometry width="50" height="50" relative="1" as="geometry">
            <mxPoint x="12.5" y="-2.5" as="sourcePoint" />
            <mxPoint x="22.5" y="2.5" as="targetPoint" />
            <Array as="points">
              <mxPoint x="12.5" y="12.5" />
            </Array>
          </mxGeometry>
        </mxCell>
        <mxCell id="5gzmhHeyu6LbhZaNA1Yw-41" value="" style="endArrow=classic;html=1;rounded=0;exitX=1;exitY=0.5;exitDx=0;exitDy=0;entryX=0;entryY=0.5;entryDx=0;entryDy=0;strokeWidth=0.5;endSize=1;" edge="1" parent="5gzmhHeyu6LbhZaNA1Yw-26" source="5gzmhHeyu6LbhZaNA1Yw-29" target="5gzmhHeyu6LbhZaNA1Yw-36">
          <mxGeometry width="50" height="50" relative="1" as="geometry">
            <mxPoint x="12.5" y="10" as="sourcePoint" />
            <mxPoint x="22.5" y="15" as="targetPoint" />
            <Array as="points" />
          </mxGeometry>
        </mxCell>
        <mxCell id="5gzmhHeyu6LbhZaNA1Yw-42" value="" style="endArrow=classic;html=1;rounded=0;entryX=0;entryY=0.5;entryDx=0;entryDy=0;strokeWidth=0.5;endSize=1;exitX=1;exitY=0.5;exitDx=0;exitDy=0;" edge="1" parent="5gzmhHeyu6LbhZaNA1Yw-26" source="5gzmhHeyu6LbhZaNA1Yw-30" target="5gzmhHeyu6LbhZaNA1Yw-36">
          <mxGeometry width="50" height="50" relative="1" as="geometry">
            <mxPoint x="12.5" y="27.5" as="sourcePoint" />
            <mxPoint x="27.5" y="20" as="targetPoint" />
            <Array as="points" />
          </mxGeometry>
        </mxCell>
        <mxCell id="5gzmhHeyu6LbhZaNA1Yw-43" value="" style="endArrow=classic;html=1;rounded=0;exitX=1;exitY=0.5;exitDx=0;exitDy=0;entryX=0;entryY=0.5;entryDx=0;entryDy=0;strokeWidth=0.5;endSize=1;" edge="1" parent="5gzmhHeyu6LbhZaNA1Yw-26" source="5gzmhHeyu6LbhZaNA1Yw-31" target="5gzmhHeyu6LbhZaNA1Yw-37">
          <mxGeometry width="50" height="50" relative="1" as="geometry">
            <mxPoint x="12.5" y="2.5" as="sourcePoint" />
            <mxPoint x="22.5" y="7.5" as="targetPoint" />
            <Array as="points" />
          </mxGeometry>
        </mxCell>
        <mxCell id="5gzmhHeyu6LbhZaNA1Yw-44" value="" style="endArrow=classic;html=1;rounded=0;exitX=1;exitY=0.5;exitDx=0;exitDy=0;entryX=0;entryY=0.5;entryDx=0;entryDy=0;strokeWidth=0.5;endSize=1;" edge="1" parent="5gzmhHeyu6LbhZaNA1Yw-26" source="5gzmhHeyu6LbhZaNA1Yw-28" target="5gzmhHeyu6LbhZaNA1Yw-37">
          <mxGeometry width="50" height="50" relative="1" as="geometry">
            <mxPoint x="17.5" y="12.5" as="sourcePoint" />
            <mxPoint x="27.5" y="17.5" as="targetPoint" />
            <Array as="points" />
          </mxGeometry>
        </mxCell>
        <mxCell id="5gzmhHeyu6LbhZaNA1Yw-45" value="" style="endArrow=classic;html=1;rounded=0;exitX=1;exitY=0.5;exitDx=0;exitDy=0;entryX=0;entryY=0.5;entryDx=0;entryDy=0;strokeWidth=0.5;endSize=1;" edge="1" parent="5gzmhHeyu6LbhZaNA1Yw-26" source="5gzmhHeyu6LbhZaNA1Yw-29" target="5gzmhHeyu6LbhZaNA1Yw-37">
          <mxGeometry width="50" height="50" relative="1" as="geometry">
            <mxPoint x="32.5" y="30" as="sourcePoint" />
            <mxPoint x="42.5" y="35" as="targetPoint" />
            <Array as="points" />
          </mxGeometry>
        </mxCell>
        <mxCell id="5gzmhHeyu6LbhZaNA1Yw-46" value="" style="endArrow=classic;html=1;rounded=0;exitX=1;exitY=0.5;exitDx=0;exitDy=0;entryX=0;entryY=0.5;entryDx=0;entryDy=0;strokeWidth=0.5;endSize=1;" edge="1" parent="5gzmhHeyu6LbhZaNA1Yw-26" source="5gzmhHeyu6LbhZaNA1Yw-30" target="5gzmhHeyu6LbhZaNA1Yw-37">
          <mxGeometry width="50" height="50" relative="1" as="geometry">
            <mxPoint x="67.5" y="17.5" as="sourcePoint" />
            <mxPoint x="77.5" y="12.5" as="targetPoint" />
            <Array as="points" />
          </mxGeometry>
        </mxCell>
        <mxCell id="5gzmhHeyu6LbhZaNA1Yw-47" value="" style="endArrow=classic;html=1;rounded=0;exitX=1;exitY=0.5;exitDx=0;exitDy=0;entryX=0;entryY=0.5;entryDx=0;entryDy=0;strokeWidth=0.5;endSize=1;" edge="1" parent="5gzmhHeyu6LbhZaNA1Yw-26" source="5gzmhHeyu6LbhZaNA1Yw-30" target="5gzmhHeyu6LbhZaNA1Yw-38">
          <mxGeometry width="50" height="50" relative="1" as="geometry">
            <mxPoint x="77.5" y="17.5" as="sourcePoint" />
            <mxPoint x="87.5" y="12.5" as="targetPoint" />
            <Array as="points" />
          </mxGeometry>
        </mxCell>
        <mxCell id="5gzmhHeyu6LbhZaNA1Yw-48" value="" style="endArrow=classic;html=1;rounded=0;exitX=1;exitY=0.5;exitDx=0;exitDy=0;entryX=0;entryY=0.5;entryDx=0;entryDy=0;strokeWidth=0.5;endSize=1;" edge="1" parent="5gzmhHeyu6LbhZaNA1Yw-26" source="5gzmhHeyu6LbhZaNA1Yw-29" target="5gzmhHeyu6LbhZaNA1Yw-38">
          <mxGeometry width="50" height="50" relative="1" as="geometry">
            <mxPoint x="82.5" y="22.5" as="sourcePoint" />
            <mxPoint x="92.5" y="17.5" as="targetPoint" />
            <Array as="points" />
          </mxGeometry>
        </mxCell>
        <mxCell id="5gzmhHeyu6LbhZaNA1Yw-49" value="" style="endArrow=classic;html=1;rounded=0;exitX=1;exitY=0.5;exitDx=0;exitDy=0;entryX=0;entryY=0.5;entryDx=0;entryDy=0;strokeWidth=0.5;endSize=1;" edge="1" parent="5gzmhHeyu6LbhZaNA1Yw-26" source="5gzmhHeyu6LbhZaNA1Yw-28" target="5gzmhHeyu6LbhZaNA1Yw-38">
          <mxGeometry width="50" height="50" relative="1" as="geometry">
            <mxPoint x="87.5" y="27.5" as="sourcePoint" />
            <mxPoint x="97.5" y="22.5" as="targetPoint" />
            <Array as="points" />
          </mxGeometry>
        </mxCell>
        <mxCell id="5gzmhHeyu6LbhZaNA1Yw-50" value="" style="endArrow=classic;html=1;rounded=0;entryX=0;entryY=0.5;entryDx=0;entryDy=0;strokeWidth=0.5;endSize=1;exitX=1;exitY=0.5;exitDx=0;exitDy=0;" edge="1" parent="5gzmhHeyu6LbhZaNA1Yw-26" source="5gzmhHeyu6LbhZaNA1Yw-31" target="5gzmhHeyu6LbhZaNA1Yw-38">
          <mxGeometry width="50" height="50" relative="1" as="geometry">
            <mxPoint x="92.5" y="32.5" as="sourcePoint" />
            <mxPoint x="102.5" y="27.5" as="targetPoint" />
            <Array as="points" />
          </mxGeometry>
        </mxCell>
        <mxCell id="5gzmhHeyu6LbhZaNA1Yw-51" value="" style="endArrow=classic;html=1;rounded=0;exitX=1;exitY=0.5;exitDx=0;exitDy=0;entryX=0;entryY=0.5;entryDx=0;entryDy=0;strokeWidth=0.5;endSize=1;" edge="1" parent="5gzmhHeyu6LbhZaNA1Yw-26" source="5gzmhHeyu6LbhZaNA1Yw-36" target="5gzmhHeyu6LbhZaNA1Yw-35">
          <mxGeometry width="50" height="50" relative="1" as="geometry">
            <mxPoint x="22.5" y="2.5" as="sourcePoint" />
            <mxPoint x="32.5" y="-2.5" as="targetPoint" />
            <Array as="points" />
          </mxGeometry>
        </mxCell>
        <mxCell id="5gzmhHeyu6LbhZaNA1Yw-52" value="" style="endArrow=classic;html=1;rounded=0;entryX=0;entryY=0.5;entryDx=0;entryDy=0;strokeWidth=0.5;endSize=1;exitX=1;exitY=0.5;exitDx=0;exitDy=0;" edge="1" parent="5gzmhHeyu6LbhZaNA1Yw-26" source="5gzmhHeyu6LbhZaNA1Yw-36" target="5gzmhHeyu6LbhZaNA1Yw-32">
          <mxGeometry width="50" height="50" relative="1" as="geometry">
            <mxPoint x="52.5" y="12.5" as="sourcePoint" />
            <mxPoint x="62.5" y="7.5" as="targetPoint" />
            <Array as="points" />
          </mxGeometry>
        </mxCell>
        <mxCell id="5gzmhHeyu6LbhZaNA1Yw-53" value="" style="endArrow=classic;html=1;rounded=0;exitX=1;exitY=0.5;exitDx=0;exitDy=0;entryX=0;entryY=0.5;entryDx=0;entryDy=0;strokeWidth=0.5;endSize=1;" edge="1" parent="5gzmhHeyu6LbhZaNA1Yw-26" source="5gzmhHeyu6LbhZaNA1Yw-36" target="5gzmhHeyu6LbhZaNA1Yw-34">
          <mxGeometry width="50" height="50" relative="1" as="geometry">
            <mxPoint x="62.5" y="17.5" as="sourcePoint" />
            <mxPoint x="72.5" y="12.5" as="targetPoint" />
            <Array as="points" />
          </mxGeometry>
        </mxCell>
        <mxCell id="5gzmhHeyu6LbhZaNA1Yw-54" value="" style="endArrow=classic;html=1;rounded=0;entryX=0;entryY=0.5;entryDx=0;entryDy=0;strokeWidth=0.5;endSize=1;exitX=1;exitY=0.5;exitDx=0;exitDy=0;" edge="1" parent="5gzmhHeyu6LbhZaNA1Yw-26" source="5gzmhHeyu6LbhZaNA1Yw-36" target="5gzmhHeyu6LbhZaNA1Yw-33">
          <mxGeometry width="50" height="50" relative="1" as="geometry">
            <mxPoint x="52.5" y="17.5" as="sourcePoint" />
            <mxPoint x="62.5" y="12.5" as="targetPoint" />
            <Array as="points" />
          </mxGeometry>
        </mxCell>
        <mxCell id="5gzmhHeyu6LbhZaNA1Yw-55" value="" style="endArrow=classic;html=1;rounded=0;exitX=1;exitY=0.5;exitDx=0;exitDy=0;entryX=0;entryY=0.5;entryDx=0;entryDy=0;strokeWidth=0.5;endSize=1;" edge="1" parent="5gzmhHeyu6LbhZaNA1Yw-26" source="5gzmhHeyu6LbhZaNA1Yw-37" target="5gzmhHeyu6LbhZaNA1Yw-35">
          <mxGeometry width="50" height="50" relative="1" as="geometry">
            <mxPoint x="67.5" y="7.5" as="sourcePoint" />
            <mxPoint x="77.5" y="2.5" as="targetPoint" />
            <Array as="points" />
          </mxGeometry>
        </mxCell>
        <mxCell id="5gzmhHeyu6LbhZaNA1Yw-56" value="" style="endArrow=classic;html=1;rounded=0;exitX=1;exitY=0.5;exitDx=0;exitDy=0;entryX=0;entryY=0.5;entryDx=0;entryDy=0;strokeWidth=0.5;endSize=1;" edge="1" parent="5gzmhHeyu6LbhZaNA1Yw-26" source="5gzmhHeyu6LbhZaNA1Yw-38" target="5gzmhHeyu6LbhZaNA1Yw-32">
          <mxGeometry width="50" height="50" relative="1" as="geometry">
            <mxPoint x="67.5" y="22.5" as="sourcePoint" />
            <mxPoint x="77.5" y="17.5" as="targetPoint" />
            <Array as="points" />
          </mxGeometry>
        </mxCell>
        <mxCell id="5gzmhHeyu6LbhZaNA1Yw-57" value="" style="endArrow=classic;html=1;rounded=0;exitX=1;exitY=0.5;exitDx=0;exitDy=0;entryX=0;entryY=0.5;entryDx=0;entryDy=0;strokeWidth=0.5;endSize=1;" edge="1" parent="5gzmhHeyu6LbhZaNA1Yw-26" source="5gzmhHeyu6LbhZaNA1Yw-38" target="5gzmhHeyu6LbhZaNA1Yw-35">
          <mxGeometry width="50" height="50" relative="1" as="geometry">
            <mxPoint x="57.5" y="27.5" as="sourcePoint" />
            <mxPoint x="67.5" y="22.5" as="targetPoint" />
            <Array as="points" />
          </mxGeometry>
        </mxCell>
        <mxCell id="5gzmhHeyu6LbhZaNA1Yw-58" value="" style="endArrow=classic;html=1;rounded=0;exitX=1;exitY=0.5;exitDx=0;exitDy=0;entryX=0;entryY=0.5;entryDx=0;entryDy=0;strokeWidth=0.5;endSize=1;" edge="1" parent="5gzmhHeyu6LbhZaNA1Yw-26" source="5gzmhHeyu6LbhZaNA1Yw-38" target="5gzmhHeyu6LbhZaNA1Yw-33">
          <mxGeometry width="50" height="50" relative="1" as="geometry">
            <mxPoint x="67.5" y="27.5" as="sourcePoint" />
            <mxPoint x="77.5" y="22.5" as="targetPoint" />
            <Array as="points" />
          </mxGeometry>
        </mxCell>
        <mxCell id="5gzmhHeyu6LbhZaNA1Yw-59" value="" style="endArrow=classic;html=1;rounded=0;exitX=1;exitY=0.5;exitDx=0;exitDy=0;entryX=0;entryY=0.5;entryDx=0;entryDy=0;strokeWidth=0.5;endSize=1;" edge="1" parent="5gzmhHeyu6LbhZaNA1Yw-26" source="5gzmhHeyu6LbhZaNA1Yw-38" target="5gzmhHeyu6LbhZaNA1Yw-34">
          <mxGeometry width="50" height="50" relative="1" as="geometry">
            <mxPoint x="82.5" y="27.5" as="sourcePoint" />
            <mxPoint x="92.5" y="22.5" as="targetPoint" />
            <Array as="points" />
          </mxGeometry>
        </mxCell>
        <mxCell id="5gzmhHeyu6LbhZaNA1Yw-60" value="" style="endArrow=classic;html=1;rounded=0;exitX=1;exitY=0.5;exitDx=0;exitDy=0;entryX=0;entryY=0.5;entryDx=0;entryDy=0;strokeWidth=0.5;endSize=1;" edge="1" parent="5gzmhHeyu6LbhZaNA1Yw-26" source="5gzmhHeyu6LbhZaNA1Yw-37" target="5gzmhHeyu6LbhZaNA1Yw-32">
          <mxGeometry width="50" height="50" relative="1" as="geometry">
            <mxPoint x="77.5" y="7.5" as="sourcePoint" />
            <mxPoint x="87.5" y="2.5" as="targetPoint" />
            <Array as="points" />
          </mxGeometry>
        </mxCell>
        <mxCell id="5gzmhHeyu6LbhZaNA1Yw-61" value="" style="endArrow=classic;html=1;rounded=0;exitX=1;exitY=0.5;exitDx=0;exitDy=0;entryX=0;entryY=0.5;entryDx=0;entryDy=0;strokeWidth=0.5;endSize=1;" edge="1" parent="5gzmhHeyu6LbhZaNA1Yw-26" source="5gzmhHeyu6LbhZaNA1Yw-37" target="5gzmhHeyu6LbhZaNA1Yw-33">
          <mxGeometry width="50" height="50" relative="1" as="geometry">
            <mxPoint x="82.5" y="12.5" as="sourcePoint" />
            <mxPoint x="92.5" y="7.5" as="targetPoint" />
            <Array as="points" />
          </mxGeometry>
        </mxCell>
        <mxCell id="5gzmhHeyu6LbhZaNA1Yw-62" value="" style="endArrow=classic;html=1;rounded=0;exitX=1;exitY=0.5;exitDx=0;exitDy=0;entryX=0;entryY=0.5;entryDx=0;entryDy=0;strokeWidth=0.5;endSize=1;" edge="1" parent="5gzmhHeyu6LbhZaNA1Yw-26" source="5gzmhHeyu6LbhZaNA1Yw-37" target="5gzmhHeyu6LbhZaNA1Yw-34">
          <mxGeometry width="50" height="50" relative="1" as="geometry">
            <mxPoint x="87.5" y="17.5" as="sourcePoint" />
            <mxPoint x="97.5" y="12.5" as="targetPoint" />
            <Array as="points" />
          </mxGeometry>
        </mxCell>
        <mxCell id="5gzmhHeyu6LbhZaNA1Yw-63" value="\(G\)" style="text;html=1;align=center;verticalAlign=middle;resizable=0;points=[];autosize=1;strokeColor=none;fillColor=none;" vertex="1" parent="1">
          <mxGeometry x="335" y="160" width="50" height="30" as="geometry" />
        </mxCell>
        <mxCell id="5gzmhHeyu6LbhZaNA1Yw-66" value="\(F\)" style="text;html=1;align=center;verticalAlign=middle;resizable=0;points=[];autosize=1;strokeColor=none;fillColor=none;" vertex="1" parent="1">
          <mxGeometry x="335" y="290" width="50" height="30" as="geometry" />
        </mxCell>
        <mxCell id="5gzmhHeyu6LbhZaNA1Yw-70" value="" style="group" vertex="1" connectable="0" parent="1">
          <mxGeometry x="560" y="220" width="40" height="40" as="geometry" />
        </mxCell>
        <mxCell id="5gzmhHeyu6LbhZaNA1Yw-71" value="" style="whiteSpace=wrap;html=1;aspect=fixed;" vertex="1" parent="5gzmhHeyu6LbhZaNA1Yw-70">
          <mxGeometry width="40" height="40" as="geometry" />
        </mxCell>
        <mxCell id="5gzmhHeyu6LbhZaNA1Yw-72" value="" style="ellipse;whiteSpace=wrap;html=1;aspect=fixed;fillColor=#0000ff;strokeColor=#0068d6;strokeWidth=0;" vertex="1" parent="5gzmhHeyu6LbhZaNA1Yw-70">
          <mxGeometry x="2.5" y="12.5" width="5" height="5" as="geometry" />
        </mxCell>
        <mxCell id="5gzmhHeyu6LbhZaNA1Yw-73" value="" style="ellipse;whiteSpace=wrap;html=1;aspect=fixed;fillColor=#0000ff;strokeColor=#0068d6;strokeWidth=0;" vertex="1" parent="5gzmhHeyu6LbhZaNA1Yw-70">
          <mxGeometry x="2.5" y="22.5" width="5" height="5" as="geometry" />
        </mxCell>
        <mxCell id="5gzmhHeyu6LbhZaNA1Yw-74" value="" style="ellipse;whiteSpace=wrap;html=1;aspect=fixed;fillColor=#0000ff;strokeColor=#0068d6;strokeWidth=0;" vertex="1" parent="5gzmhHeyu6LbhZaNA1Yw-70">
          <mxGeometry x="2.5" y="32.5" width="5" height="5" as="geometry" />
        </mxCell>
        <mxCell id="5gzmhHeyu6LbhZaNA1Yw-75" value="" style="ellipse;whiteSpace=wrap;html=1;aspect=fixed;fillColor=#0000ff;strokeColor=#0068d6;strokeWidth=0;" vertex="1" parent="5gzmhHeyu6LbhZaNA1Yw-70">
          <mxGeometry x="2.5" y="2.5" width="5" height="5" as="geometry" />
        </mxCell>
        <mxCell id="5gzmhHeyu6LbhZaNA1Yw-76" value="" style="ellipse;whiteSpace=wrap;html=1;aspect=fixed;strokeWidth=0;fillColor=#00ff00;" vertex="1" parent="5gzmhHeyu6LbhZaNA1Yw-70">
          <mxGeometry x="32.5" y="12.5" width="5" height="5" as="geometry" />
        </mxCell>
        <mxCell id="5gzmhHeyu6LbhZaNA1Yw-77" value="" style="ellipse;whiteSpace=wrap;html=1;aspect=fixed;strokeWidth=0;fillColor=#00ff00;" vertex="1" parent="5gzmhHeyu6LbhZaNA1Yw-70">
          <mxGeometry x="32.5" y="22.5" width="5" height="5" as="geometry" />
        </mxCell>
        <mxCell id="5gzmhHeyu6LbhZaNA1Yw-78" value="" style="ellipse;whiteSpace=wrap;html=1;aspect=fixed;strokeWidth=0;fillColor=#00ff00;" vertex="1" parent="5gzmhHeyu6LbhZaNA1Yw-70">
          <mxGeometry x="32.5" y="32.5" width="5" height="5" as="geometry" />
        </mxCell>
        <mxCell id="5gzmhHeyu6LbhZaNA1Yw-79" value="" style="ellipse;whiteSpace=wrap;html=1;aspect=fixed;strokeWidth=0;fillColor=#00ff00;" vertex="1" parent="5gzmhHeyu6LbhZaNA1Yw-70">
          <mxGeometry x="32.5" y="2.5" width="5" height="5" as="geometry" />
        </mxCell>
        <mxCell id="5gzmhHeyu6LbhZaNA1Yw-80" value="" style="ellipse;whiteSpace=wrap;html=1;aspect=fixed;strokeWidth=0;fillColor=#ff0000;" vertex="1" parent="5gzmhHeyu6LbhZaNA1Yw-70">
          <mxGeometry x="17.5" y="7.5" width="5" height="5" as="geometry" />
        </mxCell>
        <mxCell id="5gzmhHeyu6LbhZaNA1Yw-81" value="" style="ellipse;whiteSpace=wrap;html=1;aspect=fixed;strokeWidth=0;fillColor=#ff0000;" vertex="1" parent="5gzmhHeyu6LbhZaNA1Yw-70">
          <mxGeometry x="17.5" y="17.5" width="5" height="5" as="geometry" />
        </mxCell>
        <mxCell id="5gzmhHeyu6LbhZaNA1Yw-82" value="" style="ellipse;whiteSpace=wrap;html=1;aspect=fixed;strokeWidth=0;fillColor=#ff0000;" vertex="1" parent="5gzmhHeyu6LbhZaNA1Yw-70">
          <mxGeometry x="17.5" y="27.5" width="5" height="5" as="geometry" />
        </mxCell>
        <mxCell id="5gzmhHeyu6LbhZaNA1Yw-83" value="" style="endArrow=classic;html=1;rounded=0;exitX=1;exitY=0.5;exitDx=0;exitDy=0;entryX=0;entryY=0.5;entryDx=0;entryDy=0;strokeWidth=0.5;endSize=1;" edge="1" parent="5gzmhHeyu6LbhZaNA1Yw-70" source="5gzmhHeyu6LbhZaNA1Yw-75" target="5gzmhHeyu6LbhZaNA1Yw-80">
          <mxGeometry width="50" height="50" relative="1" as="geometry">
            <mxPoint x="27.5" y="77.5" as="sourcePoint" />
            <mxPoint x="22.5" y="-7.5" as="targetPoint" />
            <Array as="points" />
          </mxGeometry>
        </mxCell>
        <mxCell id="5gzmhHeyu6LbhZaNA1Yw-84" value="" style="endArrow=classic;html=1;rounded=0;exitX=1;exitY=0.5;exitDx=0;exitDy=0;entryX=0;entryY=0.5;entryDx=0;entryDy=0;strokeWidth=0.5;endSize=1;" edge="1" parent="5gzmhHeyu6LbhZaNA1Yw-70" source="5gzmhHeyu6LbhZaNA1Yw-72" target="5gzmhHeyu6LbhZaNA1Yw-80">
          <mxGeometry width="50" height="50" relative="1" as="geometry">
            <mxPoint x="12.5" y="-2.5" as="sourcePoint" />
            <mxPoint x="22.5" y="2.5" as="targetPoint" />
            <Array as="points">
              <mxPoint x="12.5" y="12.5" />
            </Array>
          </mxGeometry>
        </mxCell>
        <mxCell id="5gzmhHeyu6LbhZaNA1Yw-85" value="" style="endArrow=classic;html=1;rounded=0;exitX=1;exitY=0.5;exitDx=0;exitDy=0;entryX=0;entryY=0.5;entryDx=0;entryDy=0;strokeWidth=0.5;endSize=1;" edge="1" parent="5gzmhHeyu6LbhZaNA1Yw-70" source="5gzmhHeyu6LbhZaNA1Yw-73" target="5gzmhHeyu6LbhZaNA1Yw-80">
          <mxGeometry width="50" height="50" relative="1" as="geometry">
            <mxPoint x="12.5" y="10" as="sourcePoint" />
            <mxPoint x="22.5" y="15" as="targetPoint" />
            <Array as="points" />
          </mxGeometry>
        </mxCell>
        <mxCell id="5gzmhHeyu6LbhZaNA1Yw-86" value="" style="endArrow=classic;html=1;rounded=0;entryX=0;entryY=0.5;entryDx=0;entryDy=0;strokeWidth=0.5;endSize=1;exitX=1;exitY=0.5;exitDx=0;exitDy=0;" edge="1" parent="5gzmhHeyu6LbhZaNA1Yw-70" source="5gzmhHeyu6LbhZaNA1Yw-74" target="5gzmhHeyu6LbhZaNA1Yw-80">
          <mxGeometry width="50" height="50" relative="1" as="geometry">
            <mxPoint x="12.5" y="27.5" as="sourcePoint" />
            <mxPoint x="27.5" y="20" as="targetPoint" />
            <Array as="points" />
          </mxGeometry>
        </mxCell>
        <mxCell id="5gzmhHeyu6LbhZaNA1Yw-87" value="" style="endArrow=classic;html=1;rounded=0;exitX=1;exitY=0.5;exitDx=0;exitDy=0;entryX=0;entryY=0.5;entryDx=0;entryDy=0;strokeWidth=0.5;endSize=1;" edge="1" parent="5gzmhHeyu6LbhZaNA1Yw-70" source="5gzmhHeyu6LbhZaNA1Yw-75" target="5gzmhHeyu6LbhZaNA1Yw-81">
          <mxGeometry width="50" height="50" relative="1" as="geometry">
            <mxPoint x="12.5" y="2.5" as="sourcePoint" />
            <mxPoint x="22.5" y="7.5" as="targetPoint" />
            <Array as="points" />
          </mxGeometry>
        </mxCell>
        <mxCell id="5gzmhHeyu6LbhZaNA1Yw-88" value="" style="endArrow=classic;html=1;rounded=0;exitX=1;exitY=0.5;exitDx=0;exitDy=0;entryX=0;entryY=0.5;entryDx=0;entryDy=0;strokeWidth=0.5;endSize=1;" edge="1" parent="5gzmhHeyu6LbhZaNA1Yw-70" source="5gzmhHeyu6LbhZaNA1Yw-72" target="5gzmhHeyu6LbhZaNA1Yw-81">
          <mxGeometry width="50" height="50" relative="1" as="geometry">
            <mxPoint x="17.5" y="12.5" as="sourcePoint" />
            <mxPoint x="27.5" y="17.5" as="targetPoint" />
            <Array as="points" />
          </mxGeometry>
        </mxCell>
        <mxCell id="5gzmhHeyu6LbhZaNA1Yw-89" value="" style="endArrow=classic;html=1;rounded=0;exitX=1;exitY=0.5;exitDx=0;exitDy=0;entryX=0;entryY=0.5;entryDx=0;entryDy=0;strokeWidth=0.5;endSize=1;" edge="1" parent="5gzmhHeyu6LbhZaNA1Yw-70" source="5gzmhHeyu6LbhZaNA1Yw-73" target="5gzmhHeyu6LbhZaNA1Yw-81">
          <mxGeometry width="50" height="50" relative="1" as="geometry">
            <mxPoint x="32.5" y="30" as="sourcePoint" />
            <mxPoint x="42.5" y="35" as="targetPoint" />
            <Array as="points" />
          </mxGeometry>
        </mxCell>
        <mxCell id="5gzmhHeyu6LbhZaNA1Yw-90" value="" style="endArrow=classic;html=1;rounded=0;exitX=1;exitY=0.5;exitDx=0;exitDy=0;entryX=0;entryY=0.5;entryDx=0;entryDy=0;strokeWidth=0.5;endSize=1;" edge="1" parent="5gzmhHeyu6LbhZaNA1Yw-70" source="5gzmhHeyu6LbhZaNA1Yw-74" target="5gzmhHeyu6LbhZaNA1Yw-81">
          <mxGeometry width="50" height="50" relative="1" as="geometry">
            <mxPoint x="67.5" y="17.5" as="sourcePoint" />
            <mxPoint x="77.5" y="12.5" as="targetPoint" />
            <Array as="points" />
          </mxGeometry>
        </mxCell>
        <mxCell id="5gzmhHeyu6LbhZaNA1Yw-91" value="" style="endArrow=classic;html=1;rounded=0;exitX=1;exitY=0.5;exitDx=0;exitDy=0;entryX=0;entryY=0.5;entryDx=0;entryDy=0;strokeWidth=0.5;endSize=1;" edge="1" parent="5gzmhHeyu6LbhZaNA1Yw-70" source="5gzmhHeyu6LbhZaNA1Yw-74" target="5gzmhHeyu6LbhZaNA1Yw-82">
          <mxGeometry width="50" height="50" relative="1" as="geometry">
            <mxPoint x="77.5" y="17.5" as="sourcePoint" />
            <mxPoint x="87.5" y="12.5" as="targetPoint" />
            <Array as="points" />
          </mxGeometry>
        </mxCell>
        <mxCell id="5gzmhHeyu6LbhZaNA1Yw-92" value="" style="endArrow=classic;html=1;rounded=0;exitX=1;exitY=0.5;exitDx=0;exitDy=0;entryX=0;entryY=0.5;entryDx=0;entryDy=0;strokeWidth=0.5;endSize=1;" edge="1" parent="5gzmhHeyu6LbhZaNA1Yw-70" source="5gzmhHeyu6LbhZaNA1Yw-73" target="5gzmhHeyu6LbhZaNA1Yw-82">
          <mxGeometry width="50" height="50" relative="1" as="geometry">
            <mxPoint x="82.5" y="22.5" as="sourcePoint" />
            <mxPoint x="92.5" y="17.5" as="targetPoint" />
            <Array as="points" />
          </mxGeometry>
        </mxCell>
        <mxCell id="5gzmhHeyu6LbhZaNA1Yw-93" value="" style="endArrow=classic;html=1;rounded=0;exitX=1;exitY=0.5;exitDx=0;exitDy=0;entryX=0;entryY=0.5;entryDx=0;entryDy=0;strokeWidth=0.5;endSize=1;" edge="1" parent="5gzmhHeyu6LbhZaNA1Yw-70" source="5gzmhHeyu6LbhZaNA1Yw-72" target="5gzmhHeyu6LbhZaNA1Yw-82">
          <mxGeometry width="50" height="50" relative="1" as="geometry">
            <mxPoint x="87.5" y="27.5" as="sourcePoint" />
            <mxPoint x="97.5" y="22.5" as="targetPoint" />
            <Array as="points" />
          </mxGeometry>
        </mxCell>
        <mxCell id="5gzmhHeyu6LbhZaNA1Yw-94" value="" style="endArrow=classic;html=1;rounded=0;entryX=0;entryY=0.5;entryDx=0;entryDy=0;strokeWidth=0.5;endSize=1;exitX=1;exitY=0.5;exitDx=0;exitDy=0;" edge="1" parent="5gzmhHeyu6LbhZaNA1Yw-70" source="5gzmhHeyu6LbhZaNA1Yw-75" target="5gzmhHeyu6LbhZaNA1Yw-82">
          <mxGeometry width="50" height="50" relative="1" as="geometry">
            <mxPoint x="92.5" y="32.5" as="sourcePoint" />
            <mxPoint x="102.5" y="27.5" as="targetPoint" />
            <Array as="points" />
          </mxGeometry>
        </mxCell>
        <mxCell id="5gzmhHeyu6LbhZaNA1Yw-95" value="" style="endArrow=classic;html=1;rounded=0;exitX=1;exitY=0.5;exitDx=0;exitDy=0;entryX=0;entryY=0.5;entryDx=0;entryDy=0;strokeWidth=0.5;endSize=1;" edge="1" parent="5gzmhHeyu6LbhZaNA1Yw-70" source="5gzmhHeyu6LbhZaNA1Yw-80" target="5gzmhHeyu6LbhZaNA1Yw-79">
          <mxGeometry width="50" height="50" relative="1" as="geometry">
            <mxPoint x="22.5" y="2.5" as="sourcePoint" />
            <mxPoint x="32.5" y="-2.5" as="targetPoint" />
            <Array as="points" />
          </mxGeometry>
        </mxCell>
        <mxCell id="5gzmhHeyu6LbhZaNA1Yw-96" value="" style="endArrow=classic;html=1;rounded=0;entryX=0;entryY=0.5;entryDx=0;entryDy=0;strokeWidth=0.5;endSize=1;exitX=1;exitY=0.5;exitDx=0;exitDy=0;" edge="1" parent="5gzmhHeyu6LbhZaNA1Yw-70" source="5gzmhHeyu6LbhZaNA1Yw-80" target="5gzmhHeyu6LbhZaNA1Yw-76">
          <mxGeometry width="50" height="50" relative="1" as="geometry">
            <mxPoint x="52.5" y="12.5" as="sourcePoint" />
            <mxPoint x="62.5" y="7.5" as="targetPoint" />
            <Array as="points" />
          </mxGeometry>
        </mxCell>
        <mxCell id="5gzmhHeyu6LbhZaNA1Yw-97" value="" style="endArrow=classic;html=1;rounded=0;exitX=1;exitY=0.5;exitDx=0;exitDy=0;entryX=0;entryY=0.5;entryDx=0;entryDy=0;strokeWidth=0.5;endSize=1;" edge="1" parent="5gzmhHeyu6LbhZaNA1Yw-70" source="5gzmhHeyu6LbhZaNA1Yw-80" target="5gzmhHeyu6LbhZaNA1Yw-78">
          <mxGeometry width="50" height="50" relative="1" as="geometry">
            <mxPoint x="62.5" y="17.5" as="sourcePoint" />
            <mxPoint x="72.5" y="12.5" as="targetPoint" />
            <Array as="points" />
          </mxGeometry>
        </mxCell>
        <mxCell id="5gzmhHeyu6LbhZaNA1Yw-98" value="" style="endArrow=classic;html=1;rounded=0;entryX=0;entryY=0.5;entryDx=0;entryDy=0;strokeWidth=0.5;endSize=1;exitX=1;exitY=0.5;exitDx=0;exitDy=0;" edge="1" parent="5gzmhHeyu6LbhZaNA1Yw-70" source="5gzmhHeyu6LbhZaNA1Yw-80" target="5gzmhHeyu6LbhZaNA1Yw-77">
          <mxGeometry width="50" height="50" relative="1" as="geometry">
            <mxPoint x="52.5" y="17.5" as="sourcePoint" />
            <mxPoint x="62.5" y="12.5" as="targetPoint" />
            <Array as="points" />
          </mxGeometry>
        </mxCell>
        <mxCell id="5gzmhHeyu6LbhZaNA1Yw-99" value="" style="endArrow=classic;html=1;rounded=0;exitX=1;exitY=0.5;exitDx=0;exitDy=0;entryX=0;entryY=0.5;entryDx=0;entryDy=0;strokeWidth=0.5;endSize=1;" edge="1" parent="5gzmhHeyu6LbhZaNA1Yw-70" source="5gzmhHeyu6LbhZaNA1Yw-81" target="5gzmhHeyu6LbhZaNA1Yw-79">
          <mxGeometry width="50" height="50" relative="1" as="geometry">
            <mxPoint x="67.5" y="7.5" as="sourcePoint" />
            <mxPoint x="77.5" y="2.5" as="targetPoint" />
            <Array as="points" />
          </mxGeometry>
        </mxCell>
        <mxCell id="5gzmhHeyu6LbhZaNA1Yw-100" value="" style="endArrow=classic;html=1;rounded=0;exitX=1;exitY=0.5;exitDx=0;exitDy=0;entryX=0;entryY=0.5;entryDx=0;entryDy=0;strokeWidth=0.5;endSize=1;" edge="1" parent="5gzmhHeyu6LbhZaNA1Yw-70" source="5gzmhHeyu6LbhZaNA1Yw-82" target="5gzmhHeyu6LbhZaNA1Yw-76">
          <mxGeometry width="50" height="50" relative="1" as="geometry">
            <mxPoint x="67.5" y="22.5" as="sourcePoint" />
            <mxPoint x="77.5" y="17.5" as="targetPoint" />
            <Array as="points" />
          </mxGeometry>
        </mxCell>
        <mxCell id="5gzmhHeyu6LbhZaNA1Yw-101" value="" style="endArrow=classic;html=1;rounded=0;exitX=1;exitY=0.5;exitDx=0;exitDy=0;entryX=0;entryY=0.5;entryDx=0;entryDy=0;strokeWidth=0.5;endSize=1;" edge="1" parent="5gzmhHeyu6LbhZaNA1Yw-70" source="5gzmhHeyu6LbhZaNA1Yw-82" target="5gzmhHeyu6LbhZaNA1Yw-79">
          <mxGeometry width="50" height="50" relative="1" as="geometry">
            <mxPoint x="57.5" y="27.5" as="sourcePoint" />
            <mxPoint x="67.5" y="22.5" as="targetPoint" />
            <Array as="points" />
          </mxGeometry>
        </mxCell>
        <mxCell id="5gzmhHeyu6LbhZaNA1Yw-102" value="" style="endArrow=classic;html=1;rounded=0;exitX=1;exitY=0.5;exitDx=0;exitDy=0;entryX=0;entryY=0.5;entryDx=0;entryDy=0;strokeWidth=0.5;endSize=1;" edge="1" parent="5gzmhHeyu6LbhZaNA1Yw-70" source="5gzmhHeyu6LbhZaNA1Yw-82" target="5gzmhHeyu6LbhZaNA1Yw-77">
          <mxGeometry width="50" height="50" relative="1" as="geometry">
            <mxPoint x="67.5" y="27.5" as="sourcePoint" />
            <mxPoint x="77.5" y="22.5" as="targetPoint" />
            <Array as="points" />
          </mxGeometry>
        </mxCell>
        <mxCell id="5gzmhHeyu6LbhZaNA1Yw-103" value="" style="endArrow=classic;html=1;rounded=0;exitX=1;exitY=0.5;exitDx=0;exitDy=0;entryX=0;entryY=0.5;entryDx=0;entryDy=0;strokeWidth=0.5;endSize=1;" edge="1" parent="5gzmhHeyu6LbhZaNA1Yw-70" source="5gzmhHeyu6LbhZaNA1Yw-82" target="5gzmhHeyu6LbhZaNA1Yw-78">
          <mxGeometry width="50" height="50" relative="1" as="geometry">
            <mxPoint x="82.5" y="27.5" as="sourcePoint" />
            <mxPoint x="92.5" y="22.5" as="targetPoint" />
            <Array as="points" />
          </mxGeometry>
        </mxCell>
        <mxCell id="5gzmhHeyu6LbhZaNA1Yw-104" value="" style="endArrow=classic;html=1;rounded=0;exitX=1;exitY=0.5;exitDx=0;exitDy=0;entryX=0;entryY=0.5;entryDx=0;entryDy=0;strokeWidth=0.5;endSize=1;" edge="1" parent="5gzmhHeyu6LbhZaNA1Yw-70" source="5gzmhHeyu6LbhZaNA1Yw-81" target="5gzmhHeyu6LbhZaNA1Yw-76">
          <mxGeometry width="50" height="50" relative="1" as="geometry">
            <mxPoint x="77.5" y="7.5" as="sourcePoint" />
            <mxPoint x="87.5" y="2.5" as="targetPoint" />
            <Array as="points" />
          </mxGeometry>
        </mxCell>
        <mxCell id="5gzmhHeyu6LbhZaNA1Yw-105" value="" style="endArrow=classic;html=1;rounded=0;exitX=1;exitY=0.5;exitDx=0;exitDy=0;entryX=0;entryY=0.5;entryDx=0;entryDy=0;strokeWidth=0.5;endSize=1;" edge="1" parent="5gzmhHeyu6LbhZaNA1Yw-70" source="5gzmhHeyu6LbhZaNA1Yw-81" target="5gzmhHeyu6LbhZaNA1Yw-77">
          <mxGeometry width="50" height="50" relative="1" as="geometry">
            <mxPoint x="82.5" y="12.5" as="sourcePoint" />
            <mxPoint x="92.5" y="7.5" as="targetPoint" />
            <Array as="points" />
          </mxGeometry>
        </mxCell>
        <mxCell id="5gzmhHeyu6LbhZaNA1Yw-106" value="" style="endArrow=classic;html=1;rounded=0;exitX=1;exitY=0.5;exitDx=0;exitDy=0;entryX=0;entryY=0.5;entryDx=0;entryDy=0;strokeWidth=0.5;endSize=1;" edge="1" parent="5gzmhHeyu6LbhZaNA1Yw-70" source="5gzmhHeyu6LbhZaNA1Yw-81" target="5gzmhHeyu6LbhZaNA1Yw-78">
          <mxGeometry width="50" height="50" relative="1" as="geometry">
            <mxPoint x="87.5" y="17.5" as="sourcePoint" />
            <mxPoint x="97.5" y="12.5" as="targetPoint" />
            <Array as="points" />
          </mxGeometry>
        </mxCell>
        <mxCell id="5gzmhHeyu6LbhZaNA1Yw-107" value="\(D_B\)" style="text;html=1;align=center;verticalAlign=middle;resizable=0;points=[];autosize=1;strokeColor=none;fillColor=none;" vertex="1" parent="1">
          <mxGeometry x="550" y="196" width="60" height="30" as="geometry" />
        </mxCell>
        <mxCell id="5gzmhHeyu6LbhZaNA1Yw-108" value="" style="group" vertex="1" connectable="0" parent="1">
          <mxGeometry x="120" y="220" width="40" height="40" as="geometry" />
        </mxCell>
        <mxCell id="5gzmhHeyu6LbhZaNA1Yw-109" value="" style="whiteSpace=wrap;html=1;aspect=fixed;" vertex="1" parent="5gzmhHeyu6LbhZaNA1Yw-108">
          <mxGeometry width="40" height="40" as="geometry" />
        </mxCell>
        <mxCell id="5gzmhHeyu6LbhZaNA1Yw-110" value="" style="ellipse;whiteSpace=wrap;html=1;aspect=fixed;fillColor=#0000ff;strokeColor=#0068d6;strokeWidth=0;" vertex="1" parent="5gzmhHeyu6LbhZaNA1Yw-108">
          <mxGeometry x="2.5" y="12.5" width="5" height="5" as="geometry" />
        </mxCell>
        <mxCell id="5gzmhHeyu6LbhZaNA1Yw-111" value="" style="ellipse;whiteSpace=wrap;html=1;aspect=fixed;fillColor=#0000ff;strokeColor=#0068d6;strokeWidth=0;" vertex="1" parent="5gzmhHeyu6LbhZaNA1Yw-108">
          <mxGeometry x="2.5" y="22.5" width="5" height="5" as="geometry" />
        </mxCell>
        <mxCell id="5gzmhHeyu6LbhZaNA1Yw-112" value="" style="ellipse;whiteSpace=wrap;html=1;aspect=fixed;fillColor=#0000ff;strokeColor=#0068d6;strokeWidth=0;" vertex="1" parent="5gzmhHeyu6LbhZaNA1Yw-108">
          <mxGeometry x="2.5" y="32.5" width="5" height="5" as="geometry" />
        </mxCell>
        <mxCell id="5gzmhHeyu6LbhZaNA1Yw-113" value="" style="ellipse;whiteSpace=wrap;html=1;aspect=fixed;fillColor=#0000ff;strokeColor=#0068d6;strokeWidth=0;" vertex="1" parent="5gzmhHeyu6LbhZaNA1Yw-108">
          <mxGeometry x="2.5" y="2.5" width="5" height="5" as="geometry" />
        </mxCell>
        <mxCell id="5gzmhHeyu6LbhZaNA1Yw-114" value="" style="ellipse;whiteSpace=wrap;html=1;aspect=fixed;strokeWidth=0;fillColor=#00ff00;" vertex="1" parent="5gzmhHeyu6LbhZaNA1Yw-108">
          <mxGeometry x="32.5" y="12.5" width="5" height="5" as="geometry" />
        </mxCell>
        <mxCell id="5gzmhHeyu6LbhZaNA1Yw-115" value="" style="ellipse;whiteSpace=wrap;html=1;aspect=fixed;strokeWidth=0;fillColor=#00ff00;" vertex="1" parent="5gzmhHeyu6LbhZaNA1Yw-108">
          <mxGeometry x="32.5" y="22.5" width="5" height="5" as="geometry" />
        </mxCell>
        <mxCell id="5gzmhHeyu6LbhZaNA1Yw-116" value="" style="ellipse;whiteSpace=wrap;html=1;aspect=fixed;strokeWidth=0;fillColor=#00ff00;" vertex="1" parent="5gzmhHeyu6LbhZaNA1Yw-108">
          <mxGeometry x="32.5" y="32.5" width="5" height="5" as="geometry" />
        </mxCell>
        <mxCell id="5gzmhHeyu6LbhZaNA1Yw-117" value="" style="ellipse;whiteSpace=wrap;html=1;aspect=fixed;strokeWidth=0;fillColor=#00ff00;" vertex="1" parent="5gzmhHeyu6LbhZaNA1Yw-108">
          <mxGeometry x="32.5" y="2.5" width="5" height="5" as="geometry" />
        </mxCell>
        <mxCell id="5gzmhHeyu6LbhZaNA1Yw-118" value="" style="ellipse;whiteSpace=wrap;html=1;aspect=fixed;strokeWidth=0;fillColor=#ff0000;" vertex="1" parent="5gzmhHeyu6LbhZaNA1Yw-108">
          <mxGeometry x="17.5" y="7.5" width="5" height="5" as="geometry" />
        </mxCell>
        <mxCell id="5gzmhHeyu6LbhZaNA1Yw-119" value="" style="ellipse;whiteSpace=wrap;html=1;aspect=fixed;strokeWidth=0;fillColor=#ff0000;" vertex="1" parent="5gzmhHeyu6LbhZaNA1Yw-108">
          <mxGeometry x="17.5" y="17.5" width="5" height="5" as="geometry" />
        </mxCell>
        <mxCell id="5gzmhHeyu6LbhZaNA1Yw-120" value="" style="ellipse;whiteSpace=wrap;html=1;aspect=fixed;strokeWidth=0;fillColor=#ff0000;" vertex="1" parent="5gzmhHeyu6LbhZaNA1Yw-108">
          <mxGeometry x="17.5" y="27.5" width="5" height="5" as="geometry" />
        </mxCell>
        <mxCell id="5gzmhHeyu6LbhZaNA1Yw-121" value="" style="endArrow=classic;html=1;rounded=0;exitX=1;exitY=0.5;exitDx=0;exitDy=0;entryX=0;entryY=0.5;entryDx=0;entryDy=0;strokeWidth=0.5;endSize=1;" edge="1" parent="5gzmhHeyu6LbhZaNA1Yw-108" source="5gzmhHeyu6LbhZaNA1Yw-113" target="5gzmhHeyu6LbhZaNA1Yw-118">
          <mxGeometry width="50" height="50" relative="1" as="geometry">
            <mxPoint x="27.5" y="77.5" as="sourcePoint" />
            <mxPoint x="22.5" y="-7.5" as="targetPoint" />
            <Array as="points" />
          </mxGeometry>
        </mxCell>
        <mxCell id="5gzmhHeyu6LbhZaNA1Yw-122" value="" style="endArrow=classic;html=1;rounded=0;exitX=1;exitY=0.5;exitDx=0;exitDy=0;entryX=0;entryY=0.5;entryDx=0;entryDy=0;strokeWidth=0.5;endSize=1;" edge="1" parent="5gzmhHeyu6LbhZaNA1Yw-108" source="5gzmhHeyu6LbhZaNA1Yw-110" target="5gzmhHeyu6LbhZaNA1Yw-118">
          <mxGeometry width="50" height="50" relative="1" as="geometry">
            <mxPoint x="12.5" y="-2.5" as="sourcePoint" />
            <mxPoint x="22.5" y="2.5" as="targetPoint" />
            <Array as="points">
              <mxPoint x="12.5" y="12.5" />
            </Array>
          </mxGeometry>
        </mxCell>
        <mxCell id="5gzmhHeyu6LbhZaNA1Yw-123" value="" style="endArrow=classic;html=1;rounded=0;exitX=1;exitY=0.5;exitDx=0;exitDy=0;entryX=0;entryY=0.5;entryDx=0;entryDy=0;strokeWidth=0.5;endSize=1;" edge="1" parent="5gzmhHeyu6LbhZaNA1Yw-108" source="5gzmhHeyu6LbhZaNA1Yw-111" target="5gzmhHeyu6LbhZaNA1Yw-118">
          <mxGeometry width="50" height="50" relative="1" as="geometry">
            <mxPoint x="12.5" y="10" as="sourcePoint" />
            <mxPoint x="22.5" y="15" as="targetPoint" />
            <Array as="points" />
          </mxGeometry>
        </mxCell>
        <mxCell id="5gzmhHeyu6LbhZaNA1Yw-124" value="" style="endArrow=classic;html=1;rounded=0;entryX=0;entryY=0.5;entryDx=0;entryDy=0;strokeWidth=0.5;endSize=1;exitX=1;exitY=0.5;exitDx=0;exitDy=0;" edge="1" parent="5gzmhHeyu6LbhZaNA1Yw-108" source="5gzmhHeyu6LbhZaNA1Yw-112" target="5gzmhHeyu6LbhZaNA1Yw-118">
          <mxGeometry width="50" height="50" relative="1" as="geometry">
            <mxPoint x="12.5" y="27.5" as="sourcePoint" />
            <mxPoint x="27.5" y="20" as="targetPoint" />
            <Array as="points" />
          </mxGeometry>
        </mxCell>
        <mxCell id="5gzmhHeyu6LbhZaNA1Yw-125" value="" style="endArrow=classic;html=1;rounded=0;exitX=1;exitY=0.5;exitDx=0;exitDy=0;entryX=0;entryY=0.5;entryDx=0;entryDy=0;strokeWidth=0.5;endSize=1;" edge="1" parent="5gzmhHeyu6LbhZaNA1Yw-108" source="5gzmhHeyu6LbhZaNA1Yw-113" target="5gzmhHeyu6LbhZaNA1Yw-119">
          <mxGeometry width="50" height="50" relative="1" as="geometry">
            <mxPoint x="12.5" y="2.5" as="sourcePoint" />
            <mxPoint x="22.5" y="7.5" as="targetPoint" />
            <Array as="points" />
          </mxGeometry>
        </mxCell>
        <mxCell id="5gzmhHeyu6LbhZaNA1Yw-126" value="" style="endArrow=classic;html=1;rounded=0;exitX=1;exitY=0.5;exitDx=0;exitDy=0;entryX=0;entryY=0.5;entryDx=0;entryDy=0;strokeWidth=0.5;endSize=1;" edge="1" parent="5gzmhHeyu6LbhZaNA1Yw-108" source="5gzmhHeyu6LbhZaNA1Yw-110" target="5gzmhHeyu6LbhZaNA1Yw-119">
          <mxGeometry width="50" height="50" relative="1" as="geometry">
            <mxPoint x="17.5" y="12.5" as="sourcePoint" />
            <mxPoint x="27.5" y="17.5" as="targetPoint" />
            <Array as="points" />
          </mxGeometry>
        </mxCell>
        <mxCell id="5gzmhHeyu6LbhZaNA1Yw-127" value="" style="endArrow=classic;html=1;rounded=0;exitX=1;exitY=0.5;exitDx=0;exitDy=0;entryX=0;entryY=0.5;entryDx=0;entryDy=0;strokeWidth=0.5;endSize=1;" edge="1" parent="5gzmhHeyu6LbhZaNA1Yw-108" source="5gzmhHeyu6LbhZaNA1Yw-111" target="5gzmhHeyu6LbhZaNA1Yw-119">
          <mxGeometry width="50" height="50" relative="1" as="geometry">
            <mxPoint x="32.5" y="30" as="sourcePoint" />
            <mxPoint x="42.5" y="35" as="targetPoint" />
            <Array as="points" />
          </mxGeometry>
        </mxCell>
        <mxCell id="5gzmhHeyu6LbhZaNA1Yw-128" value="" style="endArrow=classic;html=1;rounded=0;exitX=1;exitY=0.5;exitDx=0;exitDy=0;entryX=0;entryY=0.5;entryDx=0;entryDy=0;strokeWidth=0.5;endSize=1;" edge="1" parent="5gzmhHeyu6LbhZaNA1Yw-108" source="5gzmhHeyu6LbhZaNA1Yw-112" target="5gzmhHeyu6LbhZaNA1Yw-119">
          <mxGeometry width="50" height="50" relative="1" as="geometry">
            <mxPoint x="67.5" y="17.5" as="sourcePoint" />
            <mxPoint x="77.5" y="12.5" as="targetPoint" />
            <Array as="points" />
          </mxGeometry>
        </mxCell>
        <mxCell id="5gzmhHeyu6LbhZaNA1Yw-129" value="" style="endArrow=classic;html=1;rounded=0;exitX=1;exitY=0.5;exitDx=0;exitDy=0;entryX=0;entryY=0.5;entryDx=0;entryDy=0;strokeWidth=0.5;endSize=1;" edge="1" parent="5gzmhHeyu6LbhZaNA1Yw-108" source="5gzmhHeyu6LbhZaNA1Yw-112" target="5gzmhHeyu6LbhZaNA1Yw-120">
          <mxGeometry width="50" height="50" relative="1" as="geometry">
            <mxPoint x="77.5" y="17.5" as="sourcePoint" />
            <mxPoint x="87.5" y="12.5" as="targetPoint" />
            <Array as="points" />
          </mxGeometry>
        </mxCell>
        <mxCell id="5gzmhHeyu6LbhZaNA1Yw-130" value="" style="endArrow=classic;html=1;rounded=0;exitX=1;exitY=0.5;exitDx=0;exitDy=0;entryX=0;entryY=0.5;entryDx=0;entryDy=0;strokeWidth=0.5;endSize=1;" edge="1" parent="5gzmhHeyu6LbhZaNA1Yw-108" source="5gzmhHeyu6LbhZaNA1Yw-111" target="5gzmhHeyu6LbhZaNA1Yw-120">
          <mxGeometry width="50" height="50" relative="1" as="geometry">
            <mxPoint x="82.5" y="22.5" as="sourcePoint" />
            <mxPoint x="92.5" y="17.5" as="targetPoint" />
            <Array as="points" />
          </mxGeometry>
        </mxCell>
        <mxCell id="5gzmhHeyu6LbhZaNA1Yw-131" value="" style="endArrow=classic;html=1;rounded=0;exitX=1;exitY=0.5;exitDx=0;exitDy=0;entryX=0;entryY=0.5;entryDx=0;entryDy=0;strokeWidth=0.5;endSize=1;" edge="1" parent="5gzmhHeyu6LbhZaNA1Yw-108" source="5gzmhHeyu6LbhZaNA1Yw-110" target="5gzmhHeyu6LbhZaNA1Yw-120">
          <mxGeometry width="50" height="50" relative="1" as="geometry">
            <mxPoint x="87.5" y="27.5" as="sourcePoint" />
            <mxPoint x="97.5" y="22.5" as="targetPoint" />
            <Array as="points" />
          </mxGeometry>
        </mxCell>
        <mxCell id="5gzmhHeyu6LbhZaNA1Yw-132" value="" style="endArrow=classic;html=1;rounded=0;entryX=0;entryY=0.5;entryDx=0;entryDy=0;strokeWidth=0.5;endSize=1;exitX=1;exitY=0.5;exitDx=0;exitDy=0;" edge="1" parent="5gzmhHeyu6LbhZaNA1Yw-108" source="5gzmhHeyu6LbhZaNA1Yw-113" target="5gzmhHeyu6LbhZaNA1Yw-120">
          <mxGeometry width="50" height="50" relative="1" as="geometry">
            <mxPoint x="92.5" y="32.5" as="sourcePoint" />
            <mxPoint x="102.5" y="27.5" as="targetPoint" />
            <Array as="points" />
          </mxGeometry>
        </mxCell>
        <mxCell id="5gzmhHeyu6LbhZaNA1Yw-133" value="" style="endArrow=classic;html=1;rounded=0;exitX=1;exitY=0.5;exitDx=0;exitDy=0;entryX=0;entryY=0.5;entryDx=0;entryDy=0;strokeWidth=0.5;endSize=1;" edge="1" parent="5gzmhHeyu6LbhZaNA1Yw-108" source="5gzmhHeyu6LbhZaNA1Yw-118" target="5gzmhHeyu6LbhZaNA1Yw-117">
          <mxGeometry width="50" height="50" relative="1" as="geometry">
            <mxPoint x="22.5" y="2.5" as="sourcePoint" />
            <mxPoint x="32.5" y="-2.5" as="targetPoint" />
            <Array as="points" />
          </mxGeometry>
        </mxCell>
        <mxCell id="5gzmhHeyu6LbhZaNA1Yw-134" value="" style="endArrow=classic;html=1;rounded=0;entryX=0;entryY=0.5;entryDx=0;entryDy=0;strokeWidth=0.5;endSize=1;exitX=1;exitY=0.5;exitDx=0;exitDy=0;" edge="1" parent="5gzmhHeyu6LbhZaNA1Yw-108" source="5gzmhHeyu6LbhZaNA1Yw-118" target="5gzmhHeyu6LbhZaNA1Yw-114">
          <mxGeometry width="50" height="50" relative="1" as="geometry">
            <mxPoint x="52.5" y="12.5" as="sourcePoint" />
            <mxPoint x="62.5" y="7.5" as="targetPoint" />
            <Array as="points" />
          </mxGeometry>
        </mxCell>
        <mxCell id="5gzmhHeyu6LbhZaNA1Yw-135" value="" style="endArrow=classic;html=1;rounded=0;exitX=1;exitY=0.5;exitDx=0;exitDy=0;entryX=0;entryY=0.5;entryDx=0;entryDy=0;strokeWidth=0.5;endSize=1;" edge="1" parent="5gzmhHeyu6LbhZaNA1Yw-108" source="5gzmhHeyu6LbhZaNA1Yw-118" target="5gzmhHeyu6LbhZaNA1Yw-116">
          <mxGeometry width="50" height="50" relative="1" as="geometry">
            <mxPoint x="62.5" y="17.5" as="sourcePoint" />
            <mxPoint x="72.5" y="12.5" as="targetPoint" />
            <Array as="points" />
          </mxGeometry>
        </mxCell>
        <mxCell id="5gzmhHeyu6LbhZaNA1Yw-136" value="" style="endArrow=classic;html=1;rounded=0;entryX=0;entryY=0.5;entryDx=0;entryDy=0;strokeWidth=0.5;endSize=1;exitX=1;exitY=0.5;exitDx=0;exitDy=0;" edge="1" parent="5gzmhHeyu6LbhZaNA1Yw-108" source="5gzmhHeyu6LbhZaNA1Yw-118" target="5gzmhHeyu6LbhZaNA1Yw-115">
          <mxGeometry width="50" height="50" relative="1" as="geometry">
            <mxPoint x="52.5" y="17.5" as="sourcePoint" />
            <mxPoint x="62.5" y="12.5" as="targetPoint" />
            <Array as="points" />
          </mxGeometry>
        </mxCell>
        <mxCell id="5gzmhHeyu6LbhZaNA1Yw-137" value="" style="endArrow=classic;html=1;rounded=0;exitX=1;exitY=0.5;exitDx=0;exitDy=0;entryX=0;entryY=0.5;entryDx=0;entryDy=0;strokeWidth=0.5;endSize=1;" edge="1" parent="5gzmhHeyu6LbhZaNA1Yw-108" source="5gzmhHeyu6LbhZaNA1Yw-119" target="5gzmhHeyu6LbhZaNA1Yw-117">
          <mxGeometry width="50" height="50" relative="1" as="geometry">
            <mxPoint x="67.5" y="7.5" as="sourcePoint" />
            <mxPoint x="77.5" y="2.5" as="targetPoint" />
            <Array as="points" />
          </mxGeometry>
        </mxCell>
        <mxCell id="5gzmhHeyu6LbhZaNA1Yw-138" value="" style="endArrow=classic;html=1;rounded=0;exitX=1;exitY=0.5;exitDx=0;exitDy=0;entryX=0;entryY=0.5;entryDx=0;entryDy=0;strokeWidth=0.5;endSize=1;" edge="1" parent="5gzmhHeyu6LbhZaNA1Yw-108" source="5gzmhHeyu6LbhZaNA1Yw-120" target="5gzmhHeyu6LbhZaNA1Yw-114">
          <mxGeometry width="50" height="50" relative="1" as="geometry">
            <mxPoint x="67.5" y="22.5" as="sourcePoint" />
            <mxPoint x="77.5" y="17.5" as="targetPoint" />
            <Array as="points" />
          </mxGeometry>
        </mxCell>
        <mxCell id="5gzmhHeyu6LbhZaNA1Yw-139" value="" style="endArrow=classic;html=1;rounded=0;exitX=1;exitY=0.5;exitDx=0;exitDy=0;entryX=0;entryY=0.5;entryDx=0;entryDy=0;strokeWidth=0.5;endSize=1;" edge="1" parent="5gzmhHeyu6LbhZaNA1Yw-108" source="5gzmhHeyu6LbhZaNA1Yw-120" target="5gzmhHeyu6LbhZaNA1Yw-117">
          <mxGeometry width="50" height="50" relative="1" as="geometry">
            <mxPoint x="57.5" y="27.5" as="sourcePoint" />
            <mxPoint x="67.5" y="22.5" as="targetPoint" />
            <Array as="points" />
          </mxGeometry>
        </mxCell>
        <mxCell id="5gzmhHeyu6LbhZaNA1Yw-140" value="" style="endArrow=classic;html=1;rounded=0;exitX=1;exitY=0.5;exitDx=0;exitDy=0;entryX=0;entryY=0.5;entryDx=0;entryDy=0;strokeWidth=0.5;endSize=1;" edge="1" parent="5gzmhHeyu6LbhZaNA1Yw-108" source="5gzmhHeyu6LbhZaNA1Yw-120" target="5gzmhHeyu6LbhZaNA1Yw-115">
          <mxGeometry width="50" height="50" relative="1" as="geometry">
            <mxPoint x="67.5" y="27.5" as="sourcePoint" />
            <mxPoint x="77.5" y="22.5" as="targetPoint" />
            <Array as="points" />
          </mxGeometry>
        </mxCell>
        <mxCell id="5gzmhHeyu6LbhZaNA1Yw-141" value="" style="endArrow=classic;html=1;rounded=0;exitX=1;exitY=0.5;exitDx=0;exitDy=0;entryX=0;entryY=0.5;entryDx=0;entryDy=0;strokeWidth=0.5;endSize=1;" edge="1" parent="5gzmhHeyu6LbhZaNA1Yw-108" source="5gzmhHeyu6LbhZaNA1Yw-120" target="5gzmhHeyu6LbhZaNA1Yw-116">
          <mxGeometry width="50" height="50" relative="1" as="geometry">
            <mxPoint x="82.5" y="27.5" as="sourcePoint" />
            <mxPoint x="92.5" y="22.5" as="targetPoint" />
            <Array as="points" />
          </mxGeometry>
        </mxCell>
        <mxCell id="5gzmhHeyu6LbhZaNA1Yw-142" value="" style="endArrow=classic;html=1;rounded=0;exitX=1;exitY=0.5;exitDx=0;exitDy=0;entryX=0;entryY=0.5;entryDx=0;entryDy=0;strokeWidth=0.5;endSize=1;" edge="1" parent="5gzmhHeyu6LbhZaNA1Yw-108" source="5gzmhHeyu6LbhZaNA1Yw-119" target="5gzmhHeyu6LbhZaNA1Yw-114">
          <mxGeometry width="50" height="50" relative="1" as="geometry">
            <mxPoint x="77.5" y="7.5" as="sourcePoint" />
            <mxPoint x="87.5" y="2.5" as="targetPoint" />
            <Array as="points" />
          </mxGeometry>
        </mxCell>
        <mxCell id="5gzmhHeyu6LbhZaNA1Yw-143" value="" style="endArrow=classic;html=1;rounded=0;exitX=1;exitY=0.5;exitDx=0;exitDy=0;entryX=0;entryY=0.5;entryDx=0;entryDy=0;strokeWidth=0.5;endSize=1;" edge="1" parent="5gzmhHeyu6LbhZaNA1Yw-108" source="5gzmhHeyu6LbhZaNA1Yw-119" target="5gzmhHeyu6LbhZaNA1Yw-115">
          <mxGeometry width="50" height="50" relative="1" as="geometry">
            <mxPoint x="82.5" y="12.5" as="sourcePoint" />
            <mxPoint x="92.5" y="7.5" as="targetPoint" />
            <Array as="points" />
          </mxGeometry>
        </mxCell>
        <mxCell id="5gzmhHeyu6LbhZaNA1Yw-144" value="" style="endArrow=classic;html=1;rounded=0;exitX=1;exitY=0.5;exitDx=0;exitDy=0;entryX=0;entryY=0.5;entryDx=0;entryDy=0;strokeWidth=0.5;endSize=1;" edge="1" parent="5gzmhHeyu6LbhZaNA1Yw-108" source="5gzmhHeyu6LbhZaNA1Yw-119" target="5gzmhHeyu6LbhZaNA1Yw-116">
          <mxGeometry width="50" height="50" relative="1" as="geometry">
            <mxPoint x="87.5" y="17.5" as="sourcePoint" />
            <mxPoint x="97.5" y="12.5" as="targetPoint" />
            <Array as="points" />
          </mxGeometry>
        </mxCell>
        <mxCell id="5gzmhHeyu6LbhZaNA1Yw-145" value="\(D_A\)" style="text;html=1;align=center;verticalAlign=middle;resizable=0;points=[];autosize=1;strokeColor=none;fillColor=none;" vertex="1" parent="1">
          <mxGeometry x="110" y="196" width="60" height="30" as="geometry" />
        </mxCell>
        <mxCell id="5gzmhHeyu6LbhZaNA1Yw-146" value="" style="endArrow=classic;html=1;rounded=0;entryX=0;entryY=0.5;entryDx=0;entryDy=0;exitX=1;exitY=0.5;exitDx=0;exitDy=0;fillColor=#1ba1e2;strokeColor=#006EAF;dashed=1;strokeWidth=2;" edge="1" parent="1" source="eB2GRgj2G_UXWOvekkWb-2" target="5gzmhHeyu6LbhZaNA1Yw-71">
          <mxGeometry width="50" height="50" relative="1" as="geometry">
            <mxPoint x="480" y="280" as="sourcePoint" />
            <mxPoint x="530" y="230" as="targetPoint" />
            <Array as="points">
              <mxPoint x="540" y="240" />
            </Array>
          </mxGeometry>
        </mxCell>
        <mxCell id="5gzmhHeyu6LbhZaNA1Yw-147" value="" style="endArrow=classic;html=1;rounded=0;entryX=1;entryY=0.5;entryDx=0;entryDy=0;exitX=0;exitY=0.5;exitDx=0;exitDy=0;fillColor=#fa6800;strokeColor=#C73500;dashed=1;strokeWidth=2;" edge="1" parent="1" source="eB2GRgj2G_UXWOvekkWb-1" target="5gzmhHeyu6LbhZaNA1Yw-109">
          <mxGeometry width="50" height="50" relative="1" as="geometry">
            <mxPoint x="480" y="280" as="sourcePoint" />
            <mxPoint x="530" y="230" as="targetPoint" />
            <Array as="points" />
          </mxGeometry>
        </mxCell>
      </root>
    </mxGraphModel>
  </diagram>
</mxfile>
